<svg xmlns="http://www.w3.org/2000/svg" xmlns:xlink="http://www.w3.org/1999/xlink" width="1493" height="297" viewBox="0 0 1493 297">
  <defs>
    <filter id="Rectángulo_95" x="0" y="0" width="1493" height="297" filterUnits="userSpaceOnUse">
      <feOffset input="SourceAlpha"/>
      <feGaussianBlur stdDeviation="7" result="blur"/>
      <feFlood flood-color="#888ecf" flood-opacity="0.851"/>
      <feComposite operator="in" in2="blur"/>
      <feComposite in="SourceGraphic"/>
    </filter>
    <filter id="Rectángulo_82" x="0" y="0" width="1493" height="297" filterUnits="userSpaceOnUse">
      <feOffset input="SourceAlpha"/>
      <feGaussianBlur stdDeviation="7" result="blur-2"/>
      <feFlood flood-color="#888ecf" flood-opacity="0.851"/>
      <feComposite operator="in" in2="blur-2"/>
      <feComposite in="SourceGraphic"/>
    </filter>
    <clipPath id="clip-path">
      <g transform="matrix(1, 0, 0, 1, 0, 0)" filter="url(#Rectángulo_95)">
        <rect id="Rectángulo_95-2" data-name="Rectángulo 95" width="1451" height="255" rx="19" transform="translate(235 3202)" fill="#3a3766"/>
      </g>
    </clipPath>
  </defs>
  <g id="Grupo_140" data-name="Grupo 140" transform="translate(-214 -3181)">
    <g id="Grupo_139" data-name="Grupo 139">
      <g transform="matrix(1, 0, 0, 1, 214, 3181)" filter="url(#Rectángulo_82)">
        <rect id="Rectángulo_82-2" data-name="Rectángulo 82" width="1451" height="255" rx="19" transform="translate(21 21)" fill="#3a3766"/>
      </g>
      <g id="Grupo_51" data-name="Grupo 51" transform="matrix(1, -0.017, 0.017, 1, -374.368, -265.344)">
        <path id="Trazado_608" data-name="Trazado 608" d="M48.339,27.314A21.024,21.024,0,1,1,27.314,6.29,21.025,21.025,0,0,1,48.339,27.314" transform="translate(571.748 3574.747)" fill="#ffcd02"/>
        <path id="Trazado_609" data-name="Trazado 609" d="M23.062,46.123A23.062,23.062,0,1,1,46.124,23.061,23.088,23.088,0,0,1,23.062,46.123m0-42.049A18.987,18.987,0,1,0,42.049,23.061,19.008,19.008,0,0,0,23.062,4.074" transform="translate(576 3579)" fill="#995bd6"/>
        <path id="Trazado_610" data-name="Trazado 610" d="M60.316,49.856a2.394,2.394,0,0,0-.6-1.706A5.386,5.386,0,0,0,57.7,46.98a23.982,23.982,0,0,1-2.457-1.066A7.789,7.789,0,0,1,53.471,44.7a4.865,4.865,0,0,1-1.15-1.614,5.4,5.4,0,0,1-.412-2.209,4.9,4.9,0,0,1,1.412-3.622,5.96,5.96,0,0,1,3.752-1.647v-2.8h2.092v2.837a5.464,5.464,0,0,1,3.622,1.929,6.353,6.353,0,0,1,1.307,4.152H60.316a3.617,3.617,0,0,0-.647-2.347,2.142,2.142,0,0,0-1.733-.778,2.205,2.205,0,0,0-1.661.608,2.315,2.315,0,0,0-.588,1.681,2.212,2.212,0,0,0,.575,1.595A6.374,6.374,0,0,0,58.4,43.711a23.83,23.83,0,0,1,2.57,1.183,7.405,7.405,0,0,1,1.7,1.255,4.877,4.877,0,0,1,1.06,1.595,5.494,5.494,0,0,1,.365,2.085,4.88,4.88,0,0,1-1.386,3.609,6.077,6.077,0,0,1-3.818,1.634v2.6H56.812V55.085a6.288,6.288,0,0,1-4.151-1.9,6.129,6.129,0,0,1-1.471-4.3h3.778a3.479,3.479,0,0,0,.74,2.387,2.7,2.7,0,0,0,2.125.83,2.6,2.6,0,0,0,1.817-.607,2.113,2.113,0,0,0,.667-1.641" transform="translate(541.393 3556.82)" fill="#f2f4f9"/>
        <rect id="Rectángulo_94" data-name="Rectángulo 94" width="46.124" height="46.124" transform="translate(576 3579)" fill="none"/>
      </g>
      <g id="Grupo_53" data-name="Grupo 53" transform="translate(-695.894 -16.861) rotate(-11)">
        <path id="Trazado_608-2" data-name="Trazado 608" d="M35.51,20.9A14.61,14.61,0,1,1,20.9,6.29,14.611,14.611,0,0,1,35.51,20.9" transform="translate(571.126 3574.125)" fill="#ffcd02"/>
        <path id="Trazado_609-2" data-name="Trazado 609" d="M16.026,32.052A16.026,16.026,0,1,1,32.052,16.025,16.044,16.044,0,0,1,16.026,32.052m0-29.221A13.194,13.194,0,1,0,29.22,16.025,13.209,13.209,0,0,0,16.026,2.831" transform="translate(576 3579)" fill="#995bd6"/>
        <path id="Trazado_610-2" data-name="Trazado 610" d="M57.532,44.655a1.664,1.664,0,0,0-.414-1.186,3.743,3.743,0,0,0-1.4-.813,16.666,16.666,0,0,1-1.708-.741,5.412,5.412,0,0,1-1.231-.845,3.381,3.381,0,0,1-.8-1.122,3.752,3.752,0,0,1-.287-1.535A3.408,3.408,0,0,1,52.67,35.9a4.142,4.142,0,0,1,2.608-1.144V32.807h1.454v1.971a3.8,3.8,0,0,1,2.517,1.341A4.415,4.415,0,0,1,60.157,39H57.532a2.513,2.513,0,0,0-.45-1.631,1.488,1.488,0,0,0-1.2-.541,1.533,1.533,0,0,0-1.154.422,1.609,1.609,0,0,0-.409,1.168,1.537,1.537,0,0,0,.4,1.108,4.429,4.429,0,0,0,1.485.854,16.56,16.56,0,0,1,1.786.822,5.146,5.146,0,0,1,1.181.872,3.389,3.389,0,0,1,.737,1.108,3.818,3.818,0,0,1,.254,1.449,3.391,3.391,0,0,1-.963,2.508,4.223,4.223,0,0,1-2.653,1.136v1.808H55.1v-1.8a4.369,4.369,0,0,1-2.885-1.322,4.259,4.259,0,0,1-1.022-2.985h2.625a2.418,2.418,0,0,0,.514,1.659,1.873,1.873,0,0,0,1.476.577,1.805,1.805,0,0,0,1.263-.422,1.468,1.468,0,0,0,.463-1.14" transform="translate(536.334 3553.578)" fill="#f2f4f9"/>
        <rect id="Rectángulo_94-2" data-name="Rectángulo 94" width="32.052" height="32.052" transform="translate(576 3578.999)" fill="none"/>
      </g>
      <g id="Grupo_57" data-name="Grupo 57" transform="matrix(0.883, 0.469, -0.469, 0.883, 2442.682, -72.286)">
        <path id="Trazado_608-3" data-name="Trazado 608" d="M46.15,26.22A19.93,19.93,0,1,1,26.22,6.29,19.931,19.931,0,0,1,46.15,26.22" transform="translate(571.642 3574.641)" fill="#ffcd02"/>
        <path id="Trazado_609-3" data-name="Trazado 609" d="M21.861,43.722A21.862,21.862,0,1,1,43.723,21.861,21.886,21.886,0,0,1,21.861,43.722m0-39.86a18,18,0,1,0,18,18,18.019,18.019,0,0,0-18-18" transform="translate(576 3579)" fill="#995bd6"/>
        <path id="Trazado_610-3" data-name="Trazado 610" d="M59.841,48.969a2.27,2.27,0,0,0-.564-1.617,5.106,5.106,0,0,0-1.915-1.109,22.734,22.734,0,0,1-2.329-1.011,7.383,7.383,0,0,1-1.68-1.153,4.612,4.612,0,0,1-1.09-1.53,5.119,5.119,0,0,1-.391-2.094,4.649,4.649,0,0,1,1.338-3.433,5.65,5.65,0,0,1,3.557-1.561V32.807h1.983V35.5a5.18,5.18,0,0,1,3.433,1.829,6.022,6.022,0,0,1,1.239,3.935H59.841a3.429,3.429,0,0,0-.613-2.225,2.03,2.03,0,0,0-1.643-.738,2.091,2.091,0,0,0-1.574.576,2.195,2.195,0,0,0-.558,1.593A2.1,2.1,0,0,0,56,41.979a6.042,6.042,0,0,0,2.026,1.165,22.59,22.59,0,0,1,2.436,1.122,7.02,7.02,0,0,1,1.611,1.19,4.623,4.623,0,0,1,1,1.512,5.208,5.208,0,0,1,.346,1.977,4.626,4.626,0,0,1-1.313,3.421,5.761,5.761,0,0,1-3.619,1.549V56.38H56.519V53.926a5.96,5.96,0,0,1-3.935-1.8,5.81,5.81,0,0,1-1.394-4.072h3.581a3.3,3.3,0,0,0,.7,2.263,2.555,2.555,0,0,0,2.014.786,2.463,2.463,0,0,0,1.723-.576,2,2,0,0,0,.632-1.555" transform="translate(540.53 3556.267)" fill="#f2f4f9"/>
        <rect id="Rectángulo_94-3" data-name="Rectángulo 94" width="43.723" height="43.723" transform="translate(576 3578.999)" fill="none"/>
      </g>
      <g id="Grupo_60" data-name="Grupo 60" transform="matrix(0.883, 0.469, -0.469, 0.883, 2736.682, -212.286)">
        <path id="Trazado_608-4" data-name="Trazado 608" d="M46.15,26.22A19.93,19.93,0,1,1,26.22,6.29,19.931,19.931,0,0,1,46.15,26.22" transform="translate(571.642 3574.641)" fill="#ffcd02"/>
        <path id="Trazado_609-4" data-name="Trazado 609" d="M21.861,43.722A21.862,21.862,0,1,1,43.723,21.861,21.886,21.886,0,0,1,21.861,43.722m0-39.86a18,18,0,1,0,18,18,18.019,18.019,0,0,0-18-18" transform="translate(576 3579)" fill="#995bd6"/>
        <path id="Trazado_610-4" data-name="Trazado 610" d="M59.841,48.969a2.27,2.27,0,0,0-.564-1.617,5.106,5.106,0,0,0-1.915-1.109,22.734,22.734,0,0,1-2.329-1.011,7.383,7.383,0,0,1-1.68-1.153,4.612,4.612,0,0,1-1.09-1.53,5.119,5.119,0,0,1-.391-2.094,4.649,4.649,0,0,1,1.338-3.433,5.65,5.65,0,0,1,3.557-1.561V32.807h1.983V35.5a5.18,5.18,0,0,1,3.433,1.829,6.022,6.022,0,0,1,1.239,3.935H59.841a3.429,3.429,0,0,0-.613-2.225,2.03,2.03,0,0,0-1.643-.738,2.091,2.091,0,0,0-1.574.576,2.195,2.195,0,0,0-.558,1.593A2.1,2.1,0,0,0,56,41.979a6.042,6.042,0,0,0,2.026,1.165,22.59,22.59,0,0,1,2.436,1.122,7.02,7.02,0,0,1,1.611,1.19,4.623,4.623,0,0,1,1,1.512,5.208,5.208,0,0,1,.346,1.977,4.626,4.626,0,0,1-1.313,3.421,5.761,5.761,0,0,1-3.619,1.549V56.38H56.519V53.926a5.96,5.96,0,0,1-3.935-1.8,5.81,5.81,0,0,1-1.394-4.072h3.581a3.3,3.3,0,0,0,.7,2.263,2.555,2.555,0,0,0,2.014.786,2.463,2.463,0,0,0,1.723-.576,2,2,0,0,0,.632-1.555" transform="translate(540.53 3556.267)" fill="#f2f4f9"/>
        <rect id="Rectángulo_94-4" data-name="Rectángulo 94" width="43.723" height="43.723" transform="translate(576 3578.999)" fill="none"/>
      </g>
      <g id="Grupo_54" data-name="Grupo 54" transform="translate(-790.894 -186.861) rotate(-11)">
        <path id="Trazado_608-5" data-name="Trazado 608" d="M35.51,20.9A14.61,14.61,0,1,1,20.9,6.29,14.611,14.611,0,0,1,35.51,20.9" transform="translate(571.126 3574.125)" fill="#ffcd02"/>
        <path id="Trazado_609-5" data-name="Trazado 609" d="M16.026,32.052A16.026,16.026,0,1,1,32.052,16.025,16.044,16.044,0,0,1,16.026,32.052m0-29.221A13.194,13.194,0,1,0,29.22,16.025,13.209,13.209,0,0,0,16.026,2.831" transform="translate(576 3579)" fill="#995bd6"/>
        <path id="Trazado_610-5" data-name="Trazado 610" d="M57.532,44.655a1.664,1.664,0,0,0-.414-1.186,3.743,3.743,0,0,0-1.4-.813,16.666,16.666,0,0,1-1.708-.741,5.412,5.412,0,0,1-1.231-.845,3.381,3.381,0,0,1-.8-1.122,3.752,3.752,0,0,1-.287-1.535A3.408,3.408,0,0,1,52.67,35.9a4.142,4.142,0,0,1,2.608-1.144V32.807h1.454v1.971a3.8,3.8,0,0,1,2.517,1.341A4.415,4.415,0,0,1,60.157,39H57.532a2.513,2.513,0,0,0-.45-1.631,1.488,1.488,0,0,0-1.2-.541,1.533,1.533,0,0,0-1.154.422,1.609,1.609,0,0,0-.409,1.168,1.537,1.537,0,0,0,.4,1.108,4.429,4.429,0,0,0,1.485.854,16.56,16.56,0,0,1,1.786.822,5.146,5.146,0,0,1,1.181.872,3.389,3.389,0,0,1,.737,1.108,3.818,3.818,0,0,1,.254,1.449,3.391,3.391,0,0,1-.963,2.508,4.223,4.223,0,0,1-2.653,1.136v1.808H55.1v-1.8a4.369,4.369,0,0,1-2.885-1.322,4.259,4.259,0,0,1-1.022-2.985h2.625a2.418,2.418,0,0,0,.514,1.659,1.873,1.873,0,0,0,1.476.577,1.805,1.805,0,0,0,1.263-.422,1.468,1.468,0,0,0,.463-1.14" transform="translate(536.334 3553.578)" fill="#f2f4f9"/>
        <rect id="Rectángulo_94-5" data-name="Rectángulo 94" width="32.052" height="32.052" transform="translate(576 3578.999)" fill="none"/>
      </g>
      <g id="Grupo_56" data-name="Grupo 56" transform="translate(-24.894 -67.861) rotate(-11)">
        <path id="Trazado_608-6" data-name="Trazado 608" d="M35.51,20.9A14.61,14.61,0,1,1,20.9,6.29,14.611,14.611,0,0,1,35.51,20.9" transform="translate(571.126 3574.125)" fill="#ffcd02"/>
        <path id="Trazado_609-6" data-name="Trazado 609" d="M16.026,32.052A16.026,16.026,0,1,1,32.052,16.025,16.044,16.044,0,0,1,16.026,32.052m0-29.221A13.194,13.194,0,1,0,29.22,16.025,13.209,13.209,0,0,0,16.026,2.831" transform="translate(576 3579)" fill="#995bd6"/>
        <path id="Trazado_610-6" data-name="Trazado 610" d="M57.532,44.655a1.664,1.664,0,0,0-.414-1.186,3.743,3.743,0,0,0-1.4-.813,16.666,16.666,0,0,1-1.708-.741,5.412,5.412,0,0,1-1.231-.845,3.381,3.381,0,0,1-.8-1.122,3.752,3.752,0,0,1-.287-1.535A3.408,3.408,0,0,1,52.67,35.9a4.142,4.142,0,0,1,2.608-1.144V32.807h1.454v1.971a3.8,3.8,0,0,1,2.517,1.341A4.415,4.415,0,0,1,60.157,39H57.532a2.513,2.513,0,0,0-.45-1.631,1.488,1.488,0,0,0-1.2-.541,1.533,1.533,0,0,0-1.154.422,1.609,1.609,0,0,0-.409,1.168,1.537,1.537,0,0,0,.4,1.108,4.429,4.429,0,0,0,1.485.854,16.56,16.56,0,0,1,1.786.822,5.146,5.146,0,0,1,1.181.872,3.389,3.389,0,0,1,.737,1.108,3.818,3.818,0,0,1,.254,1.449,3.391,3.391,0,0,1-.963,2.508,4.223,4.223,0,0,1-2.653,1.136v1.808H55.1v-1.8a4.369,4.369,0,0,1-2.885-1.322,4.259,4.259,0,0,1-1.022-2.985h2.625a2.418,2.418,0,0,0,.514,1.659,1.873,1.873,0,0,0,1.476.577,1.805,1.805,0,0,0,1.263-.422,1.468,1.468,0,0,0,.463-1.14" transform="translate(536.334 3553.578)" fill="#f2f4f9"/>
        <rect id="Rectángulo_94-6" data-name="Rectángulo 94" width="32.052" height="32.052" transform="translate(576 3578.999)" fill="none"/>
      </g>
    </g>
    <g id="Enmascarar_grupo_5" data-name="Enmascarar grupo 5" clip-path="url(#clip-path)">
      <g id="SEC5_-_Banner_CTA_-_Img_Fondo" data-name="SEC5 - Banner CTA - Img Fondo">
        <g id="Grupo_50" data-name="Grupo 50" transform="matrix(0.921, 0.391, -0.391, 0.921, 1107.895, -155.728)">
          <path id="Trazado_608-7" data-name="Trazado 608" d="M90.351,48.321A42.031,42.031,0,1,1,48.321,6.29a42.032,42.032,0,0,1,42.03,42.031" transform="translate(573.784 3576.783)" fill="#ffcd02"/>
          <path id="Trazado_609-7" data-name="Trazado 609" d="M46.1,92.208a46.1,46.1,0,1,1,46.1-46.1,46.156,46.156,0,0,1-46.1,46.1m0-84.062A37.957,37.957,0,1,0,84.061,46.1,38,38,0,0,0,46.1,8.146" transform="translate(576 3579)" fill="#995bd6"/>
          <path id="Trazado_610-7" data-name="Trazado 610" d="M69.434,66.891a4.787,4.787,0,0,0-1.19-3.411A10.767,10.767,0,0,0,64.2,61.141a47.943,47.943,0,0,1-4.912-2.131,15.571,15.571,0,0,1-3.542-2.432,9.725,9.725,0,0,1-2.3-3.227,10.794,10.794,0,0,1-.824-4.417,9.805,9.805,0,0,1,2.822-7.241,11.915,11.915,0,0,1,7.5-3.292V32.807h4.182v5.671a10.924,10.924,0,0,1,7.241,3.857,12.7,12.7,0,0,1,2.614,8.3H69.434a7.231,7.231,0,0,0-1.293-4.693,4.282,4.282,0,0,0-3.464-1.556,4.409,4.409,0,0,0-3.32,1.215,4.628,4.628,0,0,0-1.176,3.36,4.423,4.423,0,0,0,1.15,3.188A12.742,12.742,0,0,0,65.6,54.606a47.638,47.638,0,0,1,5.137,2.366,14.8,14.8,0,0,1,3.4,2.51,9.75,9.75,0,0,1,2.119,3.188,10.983,10.983,0,0,1,.731,4.169,9.756,9.756,0,0,1-2.77,7.214,12.149,12.149,0,0,1-7.632,3.267v5.2H62.428V77.345a12.57,12.57,0,0,1-8.3-3.8,12.252,12.252,0,0,1-2.94-8.587h7.552a6.955,6.955,0,0,0,1.479,4.772,5.388,5.388,0,0,0,4.247,1.659A5.194,5.194,0,0,0,68.1,70.171a4.224,4.224,0,0,0,1.333-3.28" transform="translate(557.962 3567.44)" fill="#f2f4f9"/>
          <rect id="Rectángulo_94-7" data-name="Rectángulo 94" width="92.208" height="92.208" transform="translate(576 3579)" fill="none"/>
        </g>
        <g id="Grupo_55" data-name="Grupo 55" transform="matrix(0.921, 0.391, -0.391, 0.921, 1927.895, -369.728)">
          <path id="Trazado_608-8" data-name="Trazado 608" d="M90.351,48.321A42.031,42.031,0,1,1,48.321,6.29a42.032,42.032,0,0,1,42.03,42.031" transform="translate(573.784 3576.783)" fill="#ffcd02"/>
          <path id="Trazado_609-8" data-name="Trazado 609" d="M46.1,92.208a46.1,46.1,0,1,1,46.1-46.1,46.156,46.156,0,0,1-46.1,46.1m0-84.062A37.957,37.957,0,1,0,84.061,46.1,38,38,0,0,0,46.1,8.146" transform="translate(576 3579)" fill="#995bd6"/>
          <path id="Trazado_610-8" data-name="Trazado 610" d="M69.434,66.891a4.787,4.787,0,0,0-1.19-3.411A10.767,10.767,0,0,0,64.2,61.141a47.943,47.943,0,0,1-4.912-2.131,15.571,15.571,0,0,1-3.542-2.432,9.725,9.725,0,0,1-2.3-3.227,10.794,10.794,0,0,1-.824-4.417,9.805,9.805,0,0,1,2.822-7.241,11.915,11.915,0,0,1,7.5-3.292V32.807h4.182v5.671a10.924,10.924,0,0,1,7.241,3.857,12.7,12.7,0,0,1,2.614,8.3H69.434a7.231,7.231,0,0,0-1.293-4.693,4.282,4.282,0,0,0-3.464-1.556,4.409,4.409,0,0,0-3.32,1.215,4.628,4.628,0,0,0-1.176,3.36,4.423,4.423,0,0,0,1.15,3.188A12.742,12.742,0,0,0,65.6,54.606a47.638,47.638,0,0,1,5.137,2.366,14.8,14.8,0,0,1,3.4,2.51,9.75,9.75,0,0,1,2.119,3.188,10.983,10.983,0,0,1,.731,4.169,9.756,9.756,0,0,1-2.77,7.214,12.149,12.149,0,0,1-7.632,3.267v5.2H62.428V77.345a12.57,12.57,0,0,1-8.3-3.8,12.252,12.252,0,0,1-2.94-8.587h7.552a6.955,6.955,0,0,0,1.479,4.772,5.388,5.388,0,0,0,4.247,1.659A5.194,5.194,0,0,0,68.1,70.171a4.224,4.224,0,0,0,1.333-3.28" transform="translate(557.962 3567.44)" fill="#f2f4f9"/>
          <rect id="Rectángulo_94-8" data-name="Rectángulo 94" width="92.208" height="92.208" transform="translate(576 3579)" fill="none"/>
        </g>
        <g id="Grupo_59" data-name="Grupo 59" transform="matrix(0.921, 0.391, -0.391, 0.921, 2500.895, -317.728)">
          <path id="Trazado_608-9" data-name="Trazado 608" d="M90.351,48.321A42.031,42.031,0,1,1,48.321,6.29a42.032,42.032,0,0,1,42.03,42.031" transform="translate(573.784 3576.783)" fill="#ffcd02"/>
          <path id="Trazado_609-9" data-name="Trazado 609" d="M46.1,92.208a46.1,46.1,0,1,1,46.1-46.1,46.156,46.156,0,0,1-46.1,46.1m0-84.062A37.957,37.957,0,1,0,84.061,46.1,38,38,0,0,0,46.1,8.146" transform="translate(576 3579)" fill="#995bd6"/>
          <path id="Trazado_610-9" data-name="Trazado 610" d="M69.434,66.891a4.787,4.787,0,0,0-1.19-3.411A10.767,10.767,0,0,0,64.2,61.141a47.943,47.943,0,0,1-4.912-2.131,15.571,15.571,0,0,1-3.542-2.432,9.725,9.725,0,0,1-2.3-3.227,10.794,10.794,0,0,1-.824-4.417,9.805,9.805,0,0,1,2.822-7.241,11.915,11.915,0,0,1,7.5-3.292V32.807h4.182v5.671a10.924,10.924,0,0,1,7.241,3.857,12.7,12.7,0,0,1,2.614,8.3H69.434a7.231,7.231,0,0,0-1.293-4.693,4.282,4.282,0,0,0-3.464-1.556,4.409,4.409,0,0,0-3.32,1.215,4.628,4.628,0,0,0-1.176,3.36,4.423,4.423,0,0,0,1.15,3.188A12.742,12.742,0,0,0,65.6,54.606a47.638,47.638,0,0,1,5.137,2.366,14.8,14.8,0,0,1,3.4,2.51,9.75,9.75,0,0,1,2.119,3.188,10.983,10.983,0,0,1,.731,4.169,9.756,9.756,0,0,1-2.77,7.214,12.149,12.149,0,0,1-7.632,3.267v5.2H62.428V77.345a12.57,12.57,0,0,1-8.3-3.8,12.252,12.252,0,0,1-2.94-8.587h7.552a6.955,6.955,0,0,0,1.479,4.772,5.388,5.388,0,0,0,4.247,1.659A5.194,5.194,0,0,0,68.1,70.171a4.224,4.224,0,0,0,1.333-3.28" transform="translate(557.962 3567.44)" fill="#f2f4f9"/>
          <rect id="Rectángulo_94-9" data-name="Rectángulo 94" width="92.208" height="92.208" transform="translate(576 3579)" fill="none"/>
        </g>
        <g id="Grupo_52" data-name="Grupo 52" transform="matrix(1, -0.017, 0.017, 1, -37.586, -194.132)">
          <path id="Trazado_608-10" data-name="Trazado 608" d="M111.97,59.13A52.84,52.84,0,1,1,59.13,6.29,52.841,52.841,0,0,1,111.97,59.13" transform="translate(574.831 3577.831)" fill="#ffcd02"/>
          <path id="Trazado_609-10" data-name="Trazado 609" d="M57.961,115.922a57.962,57.962,0,1,1,57.961-57.962,58.026,58.026,0,0,1-57.961,57.962m0-105.681A47.719,47.719,0,1,0,105.68,57.961,47.773,47.773,0,0,0,57.961,10.242" transform="translate(576 3579)" fill="#995bd6"/>
          <path id="Trazado_610-10" data-name="Trazado 610" d="M74.126,75.656a6.018,6.018,0,0,0-1.5-4.288,13.536,13.536,0,0,0-5.078-2.94,60.273,60.273,0,0,1-6.176-2.68,19.574,19.574,0,0,1-4.453-3.057,12.227,12.227,0,0,1-2.891-4.056A13.571,13.571,0,0,1,53,53.082a12.327,12.327,0,0,1,3.548-9.1,14.979,14.979,0,0,1,9.431-4.139V32.807h5.257v7.13a13.733,13.733,0,0,1,9.1,4.849,15.967,15.967,0,0,1,3.286,10.434h-9.5q0-3.945-1.626-5.9a5.383,5.383,0,0,0-4.355-1.956,5.543,5.543,0,0,0-4.174,1.527,5.818,5.818,0,0,0-1.479,4.224,5.56,5.56,0,0,0,1.445,4.008,16.02,16.02,0,0,0,5.371,3.088,59.891,59.891,0,0,1,6.458,2.974,18.611,18.611,0,0,1,4.271,3.155A12.257,12.257,0,0,1,82.7,70.349a13.808,13.808,0,0,1,.918,5.241,12.265,12.265,0,0,1-3.482,9.069,15.274,15.274,0,0,1-9.6,4.108V95.3H65.319V88.8q-6.734-.723-10.432-4.781t-3.7-10.8h9.494a8.744,8.744,0,0,0,1.859,6,6.773,6.773,0,0,0,5.339,2.085A6.529,6.529,0,0,0,72.45,79.78a5.311,5.311,0,0,0,1.676-4.124" transform="translate(566.489 3572.904)" fill="#f2f4f9"/>
          <rect id="Rectángulo_94-10" data-name="Rectángulo 94" width="115.922" height="115.922" transform="translate(576 3579)" fill="none"/>
        </g>
        <g id="Grupo_58" data-name="Grupo 58" transform="matrix(0.978, -0.208, 0.208, 0.978, 206.646, -50.219)">
          <path id="Trazado_608-11" data-name="Trazado 608" d="M162.571,84.431A78.14,78.14,0,1,1,84.431,6.29a78.143,78.143,0,0,1,78.14,78.141" transform="translate(577.283 3580.284)" fill="#ffcd02"/>
          <path id="Trazado_609-11" data-name="Trazado 609" d="M85.713,171.428a85.714,85.714,0,1,1,85.713-85.714,85.81,85.81,0,0,1-85.713,85.714m0-156.282a70.567,70.567,0,1,0,70.567,70.568A70.648,70.648,0,0,0,85.713,15.146" transform="translate(576 3579)" fill="#995bd6"/>
          <path id="Trazado_610-11" data-name="Trazado 610" d="M85.108,96.173A8.9,8.9,0,0,0,82.9,89.831q-2.211-2.357-7.51-4.348a89.131,89.131,0,0,1-9.133-3.963A28.947,28.947,0,0,1,59.669,77a18.081,18.081,0,0,1-4.276-6,20.068,20.068,0,0,1-1.533-8.212,18.229,18.229,0,0,1,5.247-13.461q5.248-5.247,13.946-6.12v-10.4h7.774V43.351q8.6,1.221,13.461,7.17t4.86,15.43H85.108q0-5.834-2.4-8.724a7.961,7.961,0,0,0-6.44-2.892,8.2,8.2,0,0,0-6.172,2.259A8.6,8.6,0,0,0,67.9,62.839a8.223,8.223,0,0,0,2.137,5.927Q72.187,71,77.985,73.334a88.569,88.569,0,0,1,9.55,4.4A27.522,27.522,0,0,1,93.852,82.4a18.126,18.126,0,0,1,3.94,5.926,20.419,20.419,0,0,1,1.358,7.75q0,8.265-5.15,13.412t-14.19,6.074v9.668H72.084v-9.62q-9.959-1.069-15.427-7.07T51.19,92.574H65.23q0,5.785,2.749,8.871t7.9,3.084a9.656,9.656,0,0,0,6.755-2.258,7.854,7.854,0,0,0,2.478-6.1" transform="translate(586.445 3585.694)" fill="#f2f4f9"/>
          <rect id="Rectángulo_94-11" data-name="Rectángulo 94" width="171.427" height="171.427" transform="translate(576 3579.001)" fill="none"/>
        </g>
      </g>
    </g>
  </g>
</svg>
