<svg width="1451" height="255" viewBox="0 0 1451 255" fill="none" xmlns="http://www.w3.org/2000/svg">
<path d="M1432 0H19C8.50659 0 0 8.50659 0 19V236C0 246.493 8.50659 255 19 255H1432C1442.49 255 1451 246.493 1451 236V19C1451 8.50659 1442.49 0 1432 0Z" fill="#3A3766"/>
<mask id="mask0_1_73" style="mask-type:alpha" maskUnits="userSpaceOnUse" x="0" y="0" width="1451" height="255">
<path d="M1432 0H19C8.50659 0 0 8.50659 0 19V236C0 246.493 8.50659 255 19 255H1432C1442.49 255 1451 246.493 1451 236V19C1451 8.50659 1442.49 0 1432 0Z" fill="#3A3766"/>
</mask>
<g mask="url(#mask0_1_73)">
<path d="M71.9541 124.176C72.0248 128.334 70.8608 132.42 68.6095 135.916C66.3582 139.413 63.1206 142.163 59.306 143.82C55.4915 145.477 51.2714 145.965 47.1794 145.223C43.0874 144.481 39.3072 142.543 36.3169 139.653C33.3267 136.762 31.2605 133.05 30.3799 128.986C29.4992 124.922 29.8436 120.687 31.3694 116.819C32.8952 112.95 35.5339 109.621 38.9519 107.251C42.3698 104.882 46.4135 103.58 50.5717 103.509C56.1477 103.414 61.533 105.539 65.5429 109.414C69.5529 113.29 71.859 118.6 71.9541 124.176" fill="#FFCD02"/>
<path d="M51.3211 147.595C46.7599 147.673 42.2781 146.396 38.4425 143.926C34.6069 141.457 31.5897 137.905 29.7726 133.721C27.9554 129.536 27.4199 124.907 28.2337 120.418C29.0475 115.93 31.1741 111.783 34.3445 108.503C37.515 105.223 41.5869 102.957 46.0453 101.991C50.5038 101.025 55.1486 101.403 59.3923 103.076C63.636 104.75 67.288 107.645 69.8866 111.394C72.4851 115.144 73.9135 119.58 73.991 124.141C74.0881 130.255 71.7558 136.159 67.5058 140.556C63.2559 144.953 57.4353 147.484 51.3211 147.595M50.6063 105.546C46.851 105.61 43.199 106.786 40.112 108.925C37.0251 111.065 34.6419 114.071 33.2638 117.565C31.8857 121.059 31.5746 124.883 32.3698 128.554C33.1651 132.224 35.0309 135.577 37.7314 138.187C40.432 140.797 43.8459 142.548 47.5414 143.218C51.237 143.888 55.0483 143.447 58.4933 141.951C61.9382 140.455 64.8622 137.971 66.8955 134.813C68.9287 131.655 69.9799 127.965 69.916 124.21C69.8249 119.176 67.7407 114.384 64.1206 110.885C60.5005 107.386 55.6403 105.466 50.6063 105.546" fill="#995BD6"/>
<path d="M53.6544 129.103C53.6746 128.477 53.4488 127.869 53.0254 127.407C52.4378 126.885 51.7429 126.497 50.9896 126.272C50.1461 125.977 49.3197 125.635 48.5144 125.247C47.8651 124.937 47.2618 124.539 46.7218 124.063C46.2241 123.618 45.8233 123.076 45.5444 122.469C45.2417 121.775 45.0886 121.024 45.0948 120.267C45.0593 119.599 45.1607 118.931 45.393 118.304C45.6252 117.677 45.9833 117.104 46.4452 116.621C47.4454 115.629 48.7647 115.022 50.1692 114.91L50.1216 112.11L52.2136 112.075L52.2619 114.912C53.6765 115.036 54.9873 115.705 55.9166 116.779C56.8478 117.95 57.3357 119.413 57.2942 120.909L53.5162 120.973C53.5641 120.138 53.3213 119.313 52.8293 118.637C52.6154 118.386 52.3466 118.188 52.0437 118.059C51.7409 117.929 51.4121 117.871 51.0831 117.889C50.779 117.875 50.4753 117.924 50.1912 118.034C49.9071 118.143 49.6488 118.311 49.4324 118.525C49.2322 118.756 49.0796 119.024 48.9836 119.314C48.8876 119.605 48.85 119.911 48.873 120.216C48.8642 120.507 48.9128 120.796 49.0162 121.068C49.1195 121.34 49.2755 121.589 49.4751 121.801C50.1105 122.334 50.8438 122.738 51.634 122.991C52.5192 123.319 53.384 123.699 54.2241 124.13C54.8535 124.454 55.4332 124.867 55.9454 125.356C56.4085 125.805 56.7779 126.341 57.0325 126.933C57.2995 127.593 57.4355 128.299 57.433 129.012C57.4713 129.676 57.3735 130.34 57.1457 130.965C56.9179 131.59 56.5649 132.161 56.1083 132.644C55.0836 133.638 53.7418 134.24 52.3181 134.343L52.3623 136.943L50.2833 136.979L50.2393 134.392C48.665 134.327 47.172 133.675 46.056 132.562C45.0125 131.388 44.4598 129.857 44.5119 128.287L48.2899 128.223C48.2471 129.084 48.5252 129.93 49.0705 130.597C49.3475 130.878 49.6826 131.094 50.0521 131.231C50.4216 131.369 50.8167 131.423 51.2096 131.391C51.8711 131.416 52.5172 131.188 53.0163 130.753C53.2361 130.541 53.407 130.283 53.5174 129.997C53.6277 129.712 53.6748 129.406 53.6554 129.101" fill="#F2F4F9"/>
<path d="M350.559 194.362C351.111 197.198 350.809 200.134 349.691 202.799C348.574 205.464 346.691 207.737 344.282 209.332C341.872 210.927 339.044 211.772 336.154 211.759C333.265 211.747 330.444 210.877 328.048 209.261C325.653 207.646 323.79 205.356 322.696 202.681C321.602 200.007 321.325 197.068 321.901 194.236C322.477 191.405 323.88 188.808 325.932 186.773C327.984 184.739 330.594 183.359 333.43 182.808C337.234 182.069 341.175 182.871 344.387 185.037C347.6 187.204 349.82 190.558 350.559 194.362" fill="#FFCD02"/>
<path d="M339.276 212.882C336.165 213.487 332.944 213.155 330.021 211.929C327.098 210.704 324.604 208.639 322.854 205.996C321.105 203.353 320.178 200.25 320.192 197.081C320.206 193.911 321.159 190.817 322.932 188.189C324.704 185.561 327.216 183.518 330.149 182.318C333.083 181.117 336.306 180.814 339.412 181.446C342.518 182.078 345.367 183.616 347.599 185.867C349.83 188.118 351.344 190.98 351.949 194.091C352.756 198.263 351.874 202.585 349.498 206.107C347.122 209.63 343.446 212.066 339.276 212.882M333.7 184.198C331.139 184.696 328.782 185.942 326.929 187.779C325.076 189.616 323.809 191.962 323.289 194.519C322.768 197.076 323.018 199.73 324.006 202.145C324.994 204.56 326.676 206.628 328.84 208.088C331.003 209.547 333.551 210.332 336.16 210.343C338.77 210.354 341.324 209.592 343.5 208.152C345.676 206.711 347.376 204.658 348.385 202.251C349.395 199.845 349.667 197.193 349.169 194.632C348.498 191.199 346.492 188.172 343.592 186.216C340.692 184.26 337.135 183.534 333.7 184.198" fill="#995BD6"/>
<path d="M338.636 199.947C338.575 199.517 338.348 199.127 338.004 198.862C337.539 198.576 337.017 198.394 336.474 198.331C335.861 198.231 335.254 198.097 334.656 197.93C334.174 197.796 333.713 197.595 333.286 197.335C332.892 197.091 332.552 196.768 332.287 196.386C331.996 195.948 331.8 195.453 331.712 194.934C331.608 194.482 331.597 194.014 331.679 193.558C331.762 193.102 331.937 192.667 332.193 192.281C332.758 191.481 333.587 190.907 334.535 190.66L334.163 188.747L335.59 188.47L335.966 190.404C336.949 190.318 337.927 190.618 338.693 191.24C339.47 191.928 339.981 192.868 340.134 193.895L337.557 194.396C337.489 193.819 337.223 193.284 336.804 192.881C336.628 192.736 336.421 192.633 336.199 192.58C335.977 192.528 335.745 192.528 335.523 192.579C335.313 192.606 335.112 192.677 334.931 192.786C334.749 192.895 334.593 193.041 334.471 193.213C334.362 193.395 334.29 193.598 334.259 193.808C334.228 194.018 334.24 194.232 334.292 194.438C334.321 194.638 334.39 194.83 334.493 195.004C334.597 195.177 334.734 195.329 334.896 195.449C335.395 195.738 335.946 195.926 336.517 196.004C337.162 196.122 337.8 196.277 338.427 196.47C338.897 196.616 339.343 196.828 339.753 197.101C340.124 197.352 340.442 197.674 340.687 198.048C340.95 198.467 341.129 198.934 341.213 199.422C341.32 199.871 341.333 200.338 341.253 200.793C341.173 201.248 341 201.682 340.747 202.067C340.166 202.872 339.321 203.446 338.359 203.689L338.704 205.464L337.285 205.74L336.941 203.973C335.856 204.119 334.755 203.852 333.857 203.225C333.002 202.549 332.439 201.57 332.284 200.49L334.861 199.989C334.936 200.584 335.228 201.129 335.682 201.52C335.905 201.678 336.161 201.786 336.43 201.835C336.699 201.884 336.976 201.874 337.241 201.805C337.697 201.742 338.111 201.507 338.4 201.149C338.525 200.977 338.61 200.78 338.651 200.572C338.692 200.363 338.687 200.148 338.637 199.942" fill="#F2F4F9"/>
<path d="M1064.39 195.019C1062.54 198.499 1059.7 201.354 1056.23 203.22C1052.76 205.087 1048.81 205.883 1044.89 205.507C1040.97 205.131 1037.24 203.6 1034.19 201.108C1031.14 198.616 1028.89 195.274 1027.74 191.506C1026.58 187.738 1026.57 183.712 1027.71 179.937C1028.84 176.163 1031.07 172.81 1034.11 170.301C1037.15 167.793 1040.86 166.243 1044.79 165.846C1048.71 165.45 1052.66 166.225 1056.14 168.073C1060.8 170.553 1064.3 174.784 1065.84 179.837C1067.39 184.891 1066.87 190.351 1064.39 195.019" fill="#FFCD02"/>
<path d="M1036.54 204.974C1032.72 202.946 1029.59 199.832 1027.54 196.025C1025.49 192.217 1024.62 187.888 1025.03 183.585C1025.44 179.281 1027.12 175.197 1029.86 171.848C1032.59 168.499 1036.26 166.036 1040.39 164.77C1044.52 163.504 1048.94 163.493 1053.08 164.737C1057.22 165.981 1060.9 168.425 1063.65 171.76C1066.4 175.095 1068.1 179.17 1068.54 183.472C1068.97 187.773 1068.12 192.106 1066.09 195.924C1063.37 201.039 1058.73 204.865 1053.19 206.561C1047.65 208.258 1041.66 207.687 1036.54 204.974M1055.23 169.778C1052.09 168.108 1048.52 167.408 1044.98 167.766C1041.44 168.125 1038.08 169.525 1035.34 171.79C1032.59 174.056 1030.58 177.084 1029.55 180.493C1028.53 183.902 1028.54 187.538 1029.58 190.941C1030.62 194.345 1032.65 197.363 1035.41 199.614C1038.17 201.865 1041.53 203.247 1045.07 203.587C1048.62 203.926 1052.18 203.208 1055.31 201.521C1058.45 199.835 1061.01 197.258 1062.68 194.114C1064.92 189.898 1065.39 184.967 1063.99 180.405C1062.59 175.843 1059.44 172.021 1055.23 169.778" fill="#995BD6"/>
<path d="M1046.95 190.711C1047.26 190.203 1047.35 189.596 1047.21 189.019C1046.97 188.315 1046.57 187.674 1046.04 187.142C1045.48 186.51 1044.95 185.847 1044.46 185.157C1044.06 184.601 1043.75 183.993 1043.52 183.351C1043.31 182.753 1043.23 182.119 1043.27 181.488C1043.34 180.774 1043.56 180.081 1043.91 179.456C1044.19 178.886 1044.58 178.379 1045.06 177.966C1045.54 177.552 1046.1 177.242 1046.7 177.052C1047.99 176.688 1049.36 176.791 1050.57 177.342L1051.82 174.999L1053.57 175.929L1052.31 178.307C1053.42 179.058 1054.2 180.215 1054.48 181.532C1054.72 182.93 1054.45 184.366 1053.73 185.587L1050.57 183.908C1050.99 183.238 1051.17 182.442 1051.07 181.656C1051.01 181.35 1050.88 181.062 1050.68 180.815C1050.49 180.569 1050.25 180.37 1049.97 180.234C1049.72 180.083 1049.44 179.985 1049.16 179.945C1048.87 179.906 1048.58 179.926 1048.31 180.004C1048.03 180.103 1047.78 180.256 1047.57 180.452C1047.36 180.649 1047.19 180.886 1047.07 181.149C1046.78 181.628 1046.7 182.199 1046.84 182.738C1047.12 183.472 1047.54 184.144 1048.08 184.717C1048.67 185.395 1049.21 186.107 1049.71 186.85C1050.08 187.408 1050.37 188.016 1050.57 188.656C1050.75 189.24 1050.81 189.853 1050.75 190.46C1050.66 191.131 1050.45 191.779 1050.12 192.368C1049.85 192.936 1049.47 193.443 1048.99 193.856C1048.52 194.27 1047.96 194.582 1047.36 194.773C1046.06 195.127 1044.67 195.011 1043.44 194.444L1042.28 196.62L1040.54 195.697L1041.7 193.53C1040.42 192.755 1039.48 191.53 1039.07 190.096C1038.74 188.644 1038.98 187.123 1039.74 185.846L1042.91 187.526C1042.48 188.22 1042.32 189.049 1042.46 189.852C1042.56 190.212 1042.74 190.545 1042.99 190.828C1043.23 191.111 1043.53 191.337 1043.87 191.491C1044.41 191.815 1045.05 191.922 1045.66 191.79C1045.94 191.715 1046.2 191.579 1046.43 191.394C1046.65 191.208 1046.83 190.976 1046.95 190.714" fill="#F2F4F9"/>
<path d="M1358.39 55.0187C1356.54 58.4993 1353.7 61.3536 1350.23 63.2205C1346.76 65.0874 1342.81 65.8832 1338.89 65.5072C1334.97 65.1312 1331.24 63.6003 1328.19 61.1081C1325.14 58.6159 1322.89 55.2743 1321.74 51.5059C1320.58 47.7375 1320.57 43.7116 1321.71 39.9372C1322.84 36.1629 1325.07 32.8095 1328.11 30.3014C1331.15 27.7932 1334.86 26.2428 1338.79 25.8462C1342.71 25.4496 1346.66 26.2247 1350.14 28.0734C1354.8 30.5526 1358.3 34.7842 1359.84 39.8373C1361.39 44.8905 1360.87 50.3513 1358.39 55.0187" fill="#FFCD02"/>
<path d="M1330.54 64.9744C1326.72 62.9465 1323.59 59.8319 1321.54 56.0245C1319.49 52.2172 1318.62 47.888 1319.03 43.5846C1319.44 39.2811 1321.12 35.1966 1323.86 31.8476C1326.59 28.4986 1330.26 26.0355 1334.39 24.7698C1338.52 23.5041 1342.94 23.4927 1347.08 24.7369C1351.22 25.9811 1354.9 28.4251 1357.65 31.7599C1360.4 35.0946 1362.1 39.1703 1362.54 43.4716C1362.97 47.7728 1362.12 52.1064 1360.09 55.9244C1357.37 61.0392 1352.73 64.8645 1347.19 66.5611C1341.65 68.2578 1335.66 67.6871 1330.54 64.9744M1349.23 29.778C1346.09 28.1083 1342.52 27.4083 1338.98 27.7665C1335.44 28.1247 1332.08 29.5249 1329.34 31.7902C1326.59 34.0555 1324.58 37.0841 1323.55 40.493C1322.53 43.9018 1322.54 47.5379 1323.58 50.9414C1324.62 54.3448 1326.65 57.3628 1329.41 59.6136C1332.17 61.8645 1335.53 63.2472 1339.07 63.5868C1342.62 63.9263 1346.18 63.2076 1349.31 61.5215C1352.45 59.8354 1355.01 57.2575 1356.68 54.114C1358.92 49.8977 1359.39 44.9673 1357.99 40.4049C1356.59 35.8425 1353.44 32.0207 1349.23 29.778" fill="#995BD6"/>
<path d="M1340.95 50.7114C1341.26 50.2029 1341.35 49.5956 1341.21 49.0191C1340.97 48.3152 1340.57 47.6744 1340.04 47.1417C1339.48 46.51 1338.95 45.8473 1338.46 45.1567C1338.06 44.6012 1337.75 43.9934 1337.52 43.3507C1337.31 42.7533 1337.23 42.1194 1337.27 41.4885C1337.34 40.7739 1337.56 40.0814 1337.91 39.4561C1338.19 38.8863 1338.58 38.3792 1339.06 37.9658C1339.54 37.5525 1340.1 37.2416 1340.7 37.0523C1341.99 36.6881 1343.36 36.7908 1344.57 37.3421L1345.82 34.9987L1347.57 35.9287L1346.31 38.3066C1347.42 39.0585 1348.2 40.2151 1348.48 41.5317C1348.72 42.9299 1348.45 44.3661 1347.73 45.5874L1344.57 43.9079C1344.99 43.2378 1345.17 42.4419 1345.07 41.6557C1345.01 41.3497 1344.88 41.0621 1344.68 40.8154C1344.49 40.5687 1344.25 40.3696 1343.97 40.2335C1343.72 40.0828 1343.44 39.9846 1343.16 39.9451C1342.87 39.9056 1342.58 39.9256 1342.31 40.0039C1342.03 40.1035 1341.78 40.2559 1341.57 40.4524C1341.36 40.6489 1341.19 40.8856 1341.07 41.1488C1340.78 41.6278 1340.7 42.1993 1340.84 42.7378C1341.12 43.472 1341.54 44.1442 1342.08 44.7167C1342.67 45.395 1343.21 46.1073 1343.71 46.8499C1344.08 47.4076 1344.37 48.0159 1344.57 48.6563C1344.75 49.2402 1344.81 49.8534 1344.75 50.4603C1344.66 51.1306 1344.45 51.7786 1344.12 52.3683C1343.85 52.9363 1343.47 53.4426 1342.99 53.8561C1342.52 54.2697 1341.96 54.5818 1341.36 54.7733C1340.06 55.1273 1338.67 55.0107 1337.44 54.4437L1336.28 56.6203L1334.54 55.6973L1335.7 53.5304C1334.42 52.7554 1333.48 51.5296 1333.07 50.0955C1332.74 48.6444 1332.98 47.1235 1333.74 45.8462L1336.91 47.5256C1336.48 48.2196 1336.32 49.0485 1336.46 49.8522C1336.56 50.2117 1336.74 50.5448 1336.99 50.8279C1337.23 51.111 1337.53 51.3373 1337.87 51.4908C1338.41 51.8152 1339.05 51.9224 1339.66 51.7903C1339.94 51.7148 1340.2 51.5794 1340.43 51.3935C1340.65 51.2076 1340.83 50.9756 1340.95 50.7136" fill="#F2F4F9"/>
<path d="M255.559 24.3615C256.111 27.198 255.809 30.1343 254.691 32.7991C253.574 35.4639 251.691 37.7375 249.282 39.3323C246.872 40.9272 244.044 41.7717 241.154 41.7591C238.265 41.7465 235.444 40.8773 233.048 39.2615C230.653 37.6457 228.79 35.3557 227.696 32.6813C226.602 30.0069 226.325 27.0681 226.901 24.2365C227.477 21.4049 228.88 18.8078 230.932 16.7734C232.984 14.7391 235.594 13.359 238.43 12.8077C242.234 12.0686 246.175 12.8706 249.387 15.0374C252.6 17.2041 254.82 20.558 255.559 24.3615" fill="#FFCD02"/>
<path d="M244.276 42.8817C241.165 43.4865 237.944 43.1551 235.021 41.9294C232.098 40.7037 229.604 38.6388 227.854 35.9957C226.105 33.3527 225.178 30.2502 225.192 27.0806C225.206 23.9111 226.159 20.8168 227.932 18.189C229.704 15.5612 232.216 13.518 235.149 12.3177C238.083 11.1174 241.306 10.814 244.412 11.4458C247.518 12.0775 250.367 13.6161 252.599 15.867C254.83 18.1179 256.344 20.98 256.949 24.0913C257.756 28.2632 256.874 32.5845 254.498 36.1072C252.122 39.63 248.446 42.0663 244.276 42.8817M238.7 14.1976C236.139 14.6955 233.782 15.9419 231.929 17.779C230.076 19.6162 228.809 21.9616 228.289 24.5187C227.768 27.0759 228.018 29.7299 229.006 32.1451C229.994 34.5603 231.676 36.6283 233.84 38.0875C236.003 39.5468 238.551 40.3317 241.16 40.3431C243.77 40.3545 246.324 39.5918 248.5 38.1515C250.676 36.7112 252.376 34.658 253.385 32.2515C254.395 29.845 254.667 27.1933 254.169 24.6317C253.498 21.1987 251.492 18.1721 248.592 16.216C245.692 14.2599 242.135 13.5341 238.7 14.1976" fill="#995BD6"/>
<path d="M243.636 29.9472C243.575 29.5167 243.348 29.1272 243.004 28.862C242.539 28.5755 242.017 28.3943 241.474 28.331C240.861 28.2312 240.254 28.0972 239.656 27.9296C239.174 27.7956 238.713 27.5955 238.286 27.335C237.892 27.0907 237.552 26.7677 237.287 26.3862C236.996 25.9479 236.8 25.4531 236.712 24.9342C236.608 24.4825 236.597 24.0142 236.679 23.5579C236.762 23.1017 236.937 22.6671 237.193 22.2808C237.758 21.4807 238.587 20.9066 239.535 20.6601L239.163 18.747L240.59 18.4695L240.966 20.4043C241.949 20.3184 242.927 20.6183 243.693 21.2404C244.47 21.9284 244.981 22.8684 245.134 23.8952L242.557 24.3961C242.489 23.8192 242.223 23.2838 241.804 22.8809C241.628 22.7357 241.421 22.6329 241.199 22.5805C240.977 22.5281 240.745 22.5275 240.523 22.5788C240.313 22.6063 240.112 22.6768 239.931 22.786C239.749 22.8952 239.593 23.0407 239.471 23.2133C239.362 23.3955 239.29 23.5975 239.259 23.8077C239.228 24.0179 239.24 24.232 239.292 24.4378C239.321 24.6379 239.39 24.8301 239.493 25.0037C239.597 25.1772 239.734 25.3286 239.896 25.4492C240.395 25.7379 240.946 25.9264 241.517 26.0041C242.162 26.1215 242.8 26.2772 243.427 26.4702C243.897 26.616 244.343 26.8284 244.753 27.1009C245.124 27.3517 245.442 27.6735 245.687 28.0479C245.95 28.4674 246.129 28.9341 246.213 29.4218C246.32 29.8713 246.333 30.3379 246.253 30.7928C246.173 31.2478 246 31.6815 245.747 32.0675C245.166 32.8715 244.321 33.4455 243.359 33.6888L243.704 35.4636L242.285 35.7395L241.941 33.9726C240.856 34.1189 239.755 33.8522 238.857 33.2253C238.002 32.5486 237.439 31.5696 237.284 30.4902L239.861 29.9893C239.936 30.5836 240.228 31.1289 240.682 31.5198C240.905 31.6783 241.161 31.786 241.43 31.8352C241.699 31.8844 241.976 31.8739 242.241 31.8045C242.697 31.7419 243.111 31.5075 243.4 31.1493C243.525 30.9772 243.61 30.7801 243.651 30.5716C243.692 30.3632 243.687 30.1483 243.637 29.9419" fill="#F2F4F9"/>
<path d="M1021.56 143.362C1022.11 146.198 1021.81 149.134 1020.69 151.799C1019.57 154.464 1017.69 156.737 1015.28 158.332C1012.87 159.927 1010.04 160.772 1007.15 160.759C1004.26 160.747 1001.44 159.877 999.048 158.261C996.653 156.646 994.79 154.356 993.696 151.681C992.602 149.007 992.325 146.068 992.901 143.236C993.477 140.405 994.88 137.808 996.932 135.773C998.984 133.739 1001.59 132.359 1004.43 131.808C1008.23 131.069 1012.18 131.871 1015.39 134.037C1018.6 136.204 1020.82 139.558 1021.56 143.362" fill="#FFCD02"/>
<path d="M1010.28 161.882C1007.16 162.487 1003.94 162.155 1001.02 160.929C998.098 159.704 995.604 157.639 993.854 154.996C992.105 152.353 991.179 149.25 991.192 146.081C991.206 142.911 992.159 139.817 993.932 137.189C995.704 134.561 998.216 132.518 1001.15 131.318C1004.08 130.117 1007.31 129.814 1010.41 130.446C1013.52 131.078 1016.37 132.616 1018.6 134.867C1020.83 137.118 1022.34 139.98 1022.95 143.091C1023.76 147.263 1022.87 151.585 1020.5 155.107C1018.12 158.63 1014.45 161.066 1010.28 161.882M1004.7 133.198C1002.14 133.696 999.782 134.942 997.929 136.779C996.076 138.616 994.809 140.962 994.289 143.519C993.769 146.076 994.018 148.73 995.006 151.145C995.994 153.56 997.677 155.628 999.84 157.088C1002 158.547 1004.55 159.332 1007.16 159.343C1009.77 159.354 1012.32 158.592 1014.5 157.152C1016.68 155.711 1018.38 153.658 1019.39 151.251C1020.39 148.845 1020.67 146.193 1020.17 143.632C1019.5 140.199 1017.49 137.172 1014.59 135.216C1011.69 133.26 1008.13 132.534 1004.7 133.198" fill="#995BD6"/>
<path d="M1009.64 148.947C1009.58 148.517 1009.35 148.127 1009 147.862C1008.54 147.576 1008.02 147.394 1007.47 147.331C1006.86 147.231 1006.25 147.097 1005.66 146.93C1005.17 146.796 1004.71 146.595 1004.29 146.335C1003.89 146.091 1003.55 145.768 1003.29 145.386C1003 144.948 1002.8 144.453 1002.71 143.934C1002.61 143.482 1002.6 143.014 1002.68 142.558C1002.76 142.102 1002.94 141.667 1003.19 141.281C1003.76 140.481 1004.59 139.907 1005.53 139.66L1005.16 137.747L1006.59 137.47L1006.97 139.404C1007.95 139.318 1008.93 139.618 1009.69 140.24C1010.47 140.928 1010.98 141.868 1011.13 142.895L1008.56 143.396C1008.49 142.819 1008.22 142.284 1007.8 141.881C1007.63 141.736 1007.42 141.633 1007.2 141.58C1006.98 141.528 1006.75 141.528 1006.52 141.579C1006.31 141.606 1006.11 141.677 1005.93 141.786C1005.75 141.895 1005.59 142.041 1005.47 142.213C1005.36 142.395 1005.29 142.598 1005.26 142.808C1005.23 143.018 1005.24 143.232 1005.29 143.438C1005.32 143.638 1005.39 143.83 1005.49 144.004C1005.6 144.177 1005.73 144.329 1005.9 144.449C1006.4 144.738 1006.95 144.926 1007.52 145.004C1008.16 145.122 1008.8 145.277 1009.43 145.47C1009.9 145.616 1010.34 145.828 1010.75 146.101C1011.12 146.352 1011.44 146.674 1011.69 147.048C1011.95 147.467 1012.13 147.934 1012.21 148.422C1012.32 148.871 1012.33 149.338 1012.25 149.793C1012.17 150.248 1012 150.682 1011.75 151.067C1011.17 151.872 1010.32 152.446 1009.36 152.689L1009.7 154.464L1008.28 154.74L1007.94 152.973C1006.86 153.119 1005.76 152.852 1004.86 152.225C1004 151.549 1003.44 150.57 1003.28 149.49L1005.86 148.989C1005.94 149.584 1006.23 150.129 1006.68 150.52C1006.91 150.678 1007.16 150.786 1007.43 150.835C1007.7 150.884 1007.98 150.874 1008.24 150.805C1008.7 150.742 1009.11 150.507 1009.4 150.149C1009.52 149.977 1009.61 149.78 1009.65 149.572C1009.69 149.363 1009.69 149.148 1009.64 148.942" fill="#F2F4F9"/>
<path d="M67.1477 240.67C63.8973 248.326 58.4496 254.846 51.4934 259.406C44.5372 263.967 36.385 266.361 28.0676 266.288C19.7503 266.215 11.6414 263.677 4.76644 258.996C-2.10855 254.314 -7.44087 247.699 -10.5562 239.987C-13.6715 232.275 -14.43 223.812 -12.7356 215.669C-11.0412 207.525 -6.97012 200.067 -1.03713 194.238C4.89586 188.408 12.4243 184.469 20.5961 182.918C28.7679 181.368 37.216 182.275 44.8722 185.525C55.1384 189.884 63.2527 198.143 67.4301 208.484C71.6075 218.826 71.506 230.403 67.1477 240.67" fill="#FFCD02"/>
<path d="M10.4067 266.696C2.00927 263.131 -5.14241 257.156 -10.144 249.526C-15.1456 241.897 -17.7724 232.955 -17.6923 223.833C-17.6122 214.71 -14.8287 205.816 -9.69397 198.276C-4.55919 190.735 2.69632 184.887 11.1551 181.47C19.6138 178.053 28.8958 177.221 37.8274 179.079C46.7589 180.937 54.9389 185.402 61.3328 191.909C67.7268 198.417 72.0475 206.674 73.7486 215.637C75.4498 224.599 74.4549 233.865 70.8899 242.263C66.0975 253.513 57.0384 262.404 45.6999 266.984C34.3613 271.565 21.6689 271.461 10.4067 266.696M43.2749 189.275C36.3605 186.34 28.7312 185.522 21.3518 186.923C13.9723 188.325 7.17412 191.883 1.81688 197.148C-3.54036 202.413 -7.21604 209.148 -8.74536 216.502C-10.2747 223.856 -9.58895 231.499 -6.77488 238.463C-3.96081 245.427 0.855203 251.401 7.06416 255.628C13.2731 259.855 20.5961 262.146 28.1072 262.212C35.6183 262.277 42.98 260.113 49.2616 255.995C55.5431 251.876 60.4623 245.987 63.397 239.073C67.3206 229.8 67.4056 219.349 63.6333 210.013C59.8609 200.677 52.5394 193.219 43.2749 189.275" fill="#995BD6"/>
<path d="M29.7033 234.803C30.2506 233.678 30.3359 232.383 29.941 231.196C29.2891 229.76 28.3298 228.485 27.1311 227.46C25.8294 226.236 24.5973 224.939 23.4403 223.577C22.5061 222.482 21.7283 221.262 21.1291 219.952C20.5809 218.734 20.2893 217.417 20.2725 216.081C20.2837 214.566 20.6136 213.07 21.2407 211.691C21.7187 210.442 22.447 209.304 23.3809 208.347C24.3147 207.39 25.4343 206.634 26.671 206.125C29.3049 205.125 32.2081 205.09 34.8656 206.026L37.0529 200.874L40.9045 202.509L38.6871 207.732C41.1715 209.108 43.0224 211.398 43.848 214.115C44.598 217.013 44.3013 220.082 43.0102 222.782L36.0594 219.831C36.8256 218.344 37.0532 216.638 36.7035 215.003C36.5165 214.371 36.1863 213.791 35.7385 213.307C35.2906 212.824 34.7373 212.45 34.1216 212.216C33.577 211.944 32.9819 211.787 32.3739 211.756C31.7659 211.726 31.1581 211.821 30.5888 212.036C30.0351 212.296 29.5383 212.662 29.1269 213.114C28.7155 213.566 28.3978 214.096 28.1919 214.671C27.9397 215.196 27.7933 215.764 27.7611 216.345C27.729 216.926 27.8117 217.508 28.0046 218.057C28.7298 219.548 29.739 220.884 30.9756 221.989C32.3262 223.308 33.5971 224.707 34.7817 226.177C35.6689 227.281 36.3929 228.508 36.9317 229.818C37.4132 231.014 37.6528 232.293 37.6368 233.583C37.5884 235.007 37.2634 236.408 36.68 237.708C36.2105 238.952 35.4918 240.087 34.5681 241.043C33.6444 241.999 32.535 242.757 31.3081 243.269C28.6281 244.252 25.6875 244.261 23.0017 243.294L20.9685 248.083L17.1399 246.458L19.1633 241.691C16.3377 240.294 14.1398 237.887 13.0048 234.946C12.0538 231.955 12.2863 228.713 13.6546 225.888L20.61 228.841C19.8319 230.379 19.6524 232.151 20.1063 233.814C20.384 234.552 20.82 235.22 21.3838 235.771C21.9475 236.322 22.6252 236.742 23.3691 237.003C24.5587 237.586 25.9263 237.693 27.1922 237.302C27.7666 237.092 28.2885 236.759 28.7219 236.328C29.1552 235.896 29.4898 235.376 29.7024 234.802" fill="#F2F4F9"/>
<path d="M887.148 26.6696C883.897 34.3258 878.45 40.8463 871.493 45.4064C864.537 49.9666 856.385 52.3615 848.068 52.2884C839.75 52.2153 831.641 49.6775 824.766 44.9958C817.891 40.3142 812.559 33.699 809.444 25.9868C806.328 18.2746 805.57 9.81181 807.264 1.66856C808.959 -6.47468 813.03 -13.9326 818.963 -19.7621C824.896 -25.5916 832.424 -29.5308 840.596 -31.0817C848.768 -32.6325 857.216 -31.7253 864.872 -28.4747C875.138 -24.1157 883.253 -15.8572 887.43 -5.51573C891.608 4.82572 891.506 16.403 887.148 26.6696" fill="#FFCD02"/>
<path d="M830.407 52.6958C822.009 49.1308 814.858 43.1557 809.856 35.5261C804.854 27.8966 802.228 18.9552 802.308 9.83271C802.388 0.710225 805.171 -8.18364 810.306 -15.7242C815.441 -23.2648 822.696 -29.1134 831.155 -32.5304C839.614 -35.9474 848.896 -36.7794 857.827 -34.9211C866.759 -33.0628 874.939 -28.5978 881.333 -22.0905C887.727 -15.5833 892.047 -7.32624 893.749 1.63658C895.45 10.5994 894.455 19.8654 890.89 28.2628C886.097 39.5134 877.038 48.4039 865.7 52.9843C854.361 57.5647 841.669 57.4609 830.407 52.6958M863.275 -24.7253C856.361 -27.6599 848.731 -28.4782 841.352 -27.0768C833.972 -25.6754 827.174 -22.1172 821.817 -16.8522C816.46 -11.5871 812.784 -4.85177 811.255 2.50225C809.725 9.85627 810.411 17.4986 813.225 24.4629C816.039 31.4272 820.855 37.4007 827.064 41.6279C833.273 45.8551 840.596 48.1462 848.107 48.2115C855.618 48.2768 862.98 46.1134 869.262 41.9948C875.543 37.8762 880.462 31.9874 883.397 25.0731C887.321 15.7999 887.406 5.34889 883.633 -3.98692C879.861 -13.3227 872.539 -20.781 863.275 -24.7253" fill="#995BD6"/>
<path d="M849.703 20.8027C850.251 19.6776 850.336 18.383 849.941 17.1958C849.289 15.76 848.33 14.4849 847.131 13.4604C845.829 12.2358 844.597 10.9393 843.44 9.57716C842.506 8.48151 841.728 7.26163 841.129 5.95237C840.581 4.73438 840.289 3.41657 840.273 2.08101C840.284 0.565882 840.614 -0.929938 841.241 -2.30924C841.719 -3.55803 842.447 -4.69591 843.381 -5.65299C844.315 -6.61008 845.434 -7.36615 846.671 -7.8748C849.305 -8.87527 852.208 -8.9105 854.866 -7.97423L857.053 -13.1263L860.905 -11.4911L858.687 -6.26815C861.171 -4.89165 863.022 -2.60217 863.848 0.115376C864.598 3.01269 864.301 6.08176 863.01 8.78175L856.059 5.83087C856.826 4.3444 857.053 2.63841 856.704 1.00306C856.517 0.371155 856.186 -0.209094 855.738 -0.692559C855.291 -1.17602 854.737 -1.54967 854.122 -1.78444C853.577 -2.05643 852.982 -2.21277 852.374 -2.24359C851.766 -2.27441 851.158 -2.17906 850.589 -1.96354C850.035 -1.70433 849.538 -1.33806 849.127 -0.885847C848.716 -0.433637 848.398 0.0955531 848.192 0.671198C847.94 1.19553 847.793 1.76447 847.761 2.34544C847.729 2.92642 847.812 3.50803 848.005 4.057C848.73 5.54845 849.739 6.88409 850.976 7.98907C852.326 9.30835 853.597 10.7067 854.782 12.1767C855.669 13.2813 856.393 14.5075 856.932 15.8178C857.413 17.0138 857.653 18.2934 857.637 19.5825C857.588 21.0067 857.263 22.4079 856.68 23.708C856.21 24.9519 855.492 26.0868 854.568 27.043C853.644 27.9993 852.535 28.7568 851.308 29.269C848.628 30.2524 845.687 30.2612 843.002 29.2938L840.968 34.083L837.14 32.4576L839.163 27.6914C836.338 26.2943 834.14 23.887 833.005 20.9463C832.054 17.9551 832.286 14.713 833.655 11.8882L840.61 14.841C839.832 16.3792 839.652 18.1514 840.106 19.8143C840.384 20.552 840.82 21.2198 841.384 21.7707C841.948 22.3216 842.625 22.7422 843.369 23.0028C844.559 23.5863 845.926 23.6933 847.192 23.3019C847.767 23.0917 848.288 22.7594 848.722 22.3278C849.155 21.8962 849.49 21.3757 849.702 20.8023" fill="#F2F4F9"/>
<path d="M1460.15 78.6696C1456.9 86.3258 1451.45 92.8463 1444.49 97.4064C1437.54 101.967 1429.38 104.361 1421.07 104.288C1412.75 104.215 1404.64 101.677 1397.77 96.9958C1390.89 92.3142 1385.56 85.699 1382.44 77.9868C1379.33 70.2746 1378.57 61.8118 1380.26 53.6686C1381.96 45.5253 1386.03 38.0674 1391.96 32.2379C1397.9 26.4084 1405.42 22.4692 1413.6 20.9183C1421.77 19.3675 1430.22 20.2747 1437.87 23.5253C1448.14 27.8843 1456.25 36.1428 1460.43 46.4843C1464.61 56.8257 1464.51 68.403 1460.15 78.6696" fill="#FFCD02"/>
<path d="M1403.41 104.696C1395.01 101.131 1387.86 95.1557 1382.86 87.5261C1377.85 79.8966 1375.23 70.9552 1375.31 61.8327C1375.39 52.7102 1378.17 43.8164 1383.31 36.2758C1388.44 28.7352 1395.7 22.8866 1404.16 19.4696C1412.61 16.0526 1421.9 15.2206 1430.83 17.0789C1439.76 18.9372 1447.94 23.4022 1454.33 29.9095C1460.73 36.4167 1465.05 44.6738 1466.75 53.6366C1468.45 62.5994 1467.45 71.8654 1463.89 80.2628C1459.1 91.5134 1450.04 100.404 1438.7 104.984C1427.36 109.565 1414.67 109.461 1403.41 104.696M1436.27 27.2747C1429.36 24.3401 1421.73 23.5218 1414.35 24.9232C1406.97 26.3246 1400.17 29.8828 1394.82 35.1478C1389.46 40.4129 1385.78 47.1482 1384.25 54.5023C1382.73 61.8563 1383.41 69.4986 1386.23 76.4629C1389.04 83.4272 1393.86 89.4007 1400.06 93.6279C1406.27 97.8551 1413.6 100.146 1421.11 100.212C1428.62 100.277 1435.98 98.1134 1442.26 93.9948C1448.54 89.8762 1453.46 83.9874 1456.4 77.0731C1460.32 67.7999 1460.41 57.3489 1456.63 48.0131C1452.86 38.6773 1445.54 31.219 1436.27 27.2747" fill="#995BD6"/>
<path d="M1422.7 72.8027C1423.25 71.6776 1423.34 70.383 1422.94 69.1958C1422.29 67.76 1421.33 66.4849 1420.13 65.4604C1418.83 64.2358 1417.6 62.9393 1416.44 61.5772C1415.51 60.4815 1414.73 59.2616 1414.13 57.9524C1413.58 56.7344 1413.29 55.4166 1413.27 54.081C1413.28 52.5659 1413.61 51.0701 1414.24 49.6908C1414.72 48.442 1415.45 47.3041 1416.38 46.347C1417.31 45.3899 1418.43 44.6338 1419.67 44.1252C1422.3 43.1247 1425.21 43.0895 1427.87 44.0258L1430.05 38.8737L1433.9 40.5089L1431.69 45.7319C1434.17 47.1084 1436.02 49.3978 1436.85 52.1154C1437.6 55.0127 1437.3 58.0818 1436.01 60.7818L1429.06 57.8309C1429.83 56.3444 1430.05 54.6384 1429.7 53.0031C1429.52 52.3712 1429.19 51.7909 1428.74 51.3074C1428.29 50.824 1427.74 50.4503 1427.12 50.2156C1426.58 49.9436 1425.98 49.7872 1425.37 49.7564C1424.77 49.7256 1424.16 49.8209 1423.59 50.0365C1423.04 50.2957 1422.54 50.6619 1422.13 51.1142C1421.72 51.5664 1421.4 52.0956 1421.19 52.6712C1420.94 53.1955 1420.79 53.7645 1420.76 54.3454C1420.73 54.9264 1420.81 55.508 1421 56.057C1421.73 57.5485 1422.74 58.8841 1423.98 59.9891C1425.33 61.3083 1426.6 62.7067 1427.78 64.1767C1428.67 65.2813 1429.39 66.5075 1429.93 67.8178C1430.41 69.0138 1430.65 70.2934 1430.64 71.5825C1430.59 73.0067 1430.26 74.4079 1429.68 75.708C1429.21 76.9519 1428.49 78.0868 1427.57 79.043C1426.64 79.9993 1425.54 80.7568 1424.31 81.269C1421.63 82.2524 1418.69 82.2612 1416 81.2938L1413.97 86.083L1410.14 84.4576L1412.16 79.6914C1409.34 78.2943 1407.14 75.887 1406 72.9463C1405.05 69.9551 1405.29 66.713 1406.65 63.8882L1413.61 66.841C1412.83 68.3792 1412.65 70.1514 1413.11 71.8143C1413.38 72.552 1413.82 73.2198 1414.38 73.7707C1414.95 74.3216 1415.63 74.7422 1416.37 75.0028C1417.56 75.5863 1418.93 75.6933 1420.19 75.3019C1420.77 75.0917 1421.29 74.7594 1421.72 74.3278C1422.16 73.8962 1422.49 73.3757 1422.7 72.8023" fill="#F2F4F9"/>
<path d="M476.043 229.153C476.221 239.604 473.296 249.873 467.637 258.661C461.979 267.449 453.841 274.362 444.254 278.526C434.667 282.689 424.06 283.916 413.776 282.052C403.491 280.187 393.99 275.315 386.475 268.05C378.959 260.786 373.767 251.457 371.554 241.241C369.341 231.026 370.207 220.384 374.042 210.661C377.877 200.937 384.509 192.57 393.1 186.616C401.691 180.662 411.854 177.389 422.305 177.212C436.319 176.974 449.854 182.312 459.931 192.053C470.009 201.794 475.805 215.139 476.043 229.153" fill="#FFCD02"/>
<path d="M424.189 288.013C412.725 288.208 401.461 284.999 391.82 278.792C382.18 272.585 374.597 263.659 370.03 253.143C365.463 242.626 364.116 230.991 366.162 219.71C368.207 208.428 373.552 198.006 381.52 189.762C389.488 181.518 399.722 175.822 410.928 173.395C422.133 170.967 433.807 171.917 444.473 176.124C455.139 180.33 464.317 187.606 470.848 197.029C477.379 206.453 480.969 217.601 481.164 229.065C481.409 244.433 475.547 259.269 464.866 270.32C454.184 281.371 439.555 287.734 424.189 288.013M422.392 182.332C412.954 182.492 403.776 185.448 396.018 190.824C388.259 196.201 382.27 203.758 378.806 212.539C375.343 221.319 374.561 230.93 376.559 240.155C378.558 249.381 383.247 257.806 390.034 264.366C396.821 270.927 405.401 275.327 414.689 277.011C423.977 278.695 433.555 277.587 442.213 273.827C450.871 270.067 458.22 263.824 463.33 255.888C468.441 247.952 471.083 238.678 470.922 229.24C470.693 216.589 465.455 204.546 456.357 195.752C447.259 186.958 435.044 182.132 422.392 182.333" fill="#995BD6"/>
<path d="M430.055 241.537C430.107 239.966 429.543 238.436 428.482 237.275C427.002 235.96 425.251 234.986 423.354 234.421C421.233 233.679 419.156 232.82 417.132 231.846C415.5 231.065 413.984 230.062 412.627 228.865C411.376 227.747 410.368 226.383 409.667 224.858C408.909 223.112 408.527 221.226 408.545 219.323C408.456 217.645 408.712 215.967 409.295 214.392C409.879 212.817 410.778 211.377 411.938 210.162C414.452 207.668 417.768 206.145 421.299 205.863L421.179 198.827L426.436 198.738L426.557 205.868C430.112 206.18 433.405 207.864 435.74 210.562C438.08 213.506 439.307 217.181 439.203 220.94L429.703 221.101C429.658 218.471 429.083 216.514 427.977 215.229C427.439 214.599 426.764 214.101 426.003 213.775C425.242 213.449 424.415 213.302 423.589 213.347C422.824 213.313 422.061 213.437 421.347 213.712C420.633 213.987 419.984 214.407 419.441 214.945C418.937 215.525 418.554 216.2 418.312 216.929C418.07 217.658 417.976 218.428 418.033 219.194C418.011 219.925 418.134 220.653 418.393 221.337C418.653 222.02 419.045 222.646 419.546 223.178C421.142 224.52 422.984 225.538 424.97 226.174C427.194 226.999 429.368 227.956 431.479 229.039C433.06 229.854 434.516 230.892 435.803 232.121C436.968 233.248 437.898 234.596 438.538 236.085C439.21 237.745 439.552 239.519 439.545 241.31C439.642 242.978 439.396 244.648 438.824 246.218C438.252 247.787 437.365 249.224 436.218 250.438C433.641 252.937 430.267 254.45 426.687 254.709L426.798 261.242L421.581 261.331L421.471 254.831C416.973 254.425 413.469 252.891 410.958 250.227C408.446 247.564 407.152 243.985 407.074 239.49L416.568 239.329C416.46 241.493 417.159 243.619 418.529 245.297C419.225 246.002 420.066 246.546 420.995 246.891C421.924 247.236 422.916 247.372 423.904 247.292C425.567 247.357 427.193 246.784 428.449 245.69C429.001 245.155 429.43 244.507 429.708 243.79C429.985 243.073 430.103 242.305 430.055 241.537Z" fill="#F2F4F9"/>
<path d="M1457.48 177.983C1460.7 193.097 1459.36 208.826 1453.63 223.179C1447.91 237.532 1438.06 249.865 1425.32 258.619C1412.59 267.373 1397.55 272.154 1382.09 272.358C1366.64 272.562 1351.48 268.18 1338.52 259.765C1325.56 251.35 1315.38 239.281 1309.28 225.084C1303.18 210.887 1301.43 195.2 1304.24 180.005C1307.05 164.811 1314.31 150.793 1325.09 139.723C1335.87 128.653 1349.7 121.028 1364.81 117.814C1385.08 113.504 1406.23 117.422 1423.61 128.706C1440.99 139.989 1453.17 157.715 1457.48 177.983" fill="#FFCD02"/>
<path d="M1398.89 278.063C1382.31 281.59 1365.06 280.12 1349.31 273.841C1333.57 267.562 1320.04 256.755 1310.44 242.787C1300.83 228.819 1295.59 212.317 1295.37 195.368C1295.14 178.419 1299.95 161.784 1309.18 147.567C1318.41 133.35 1331.65 122.189 1347.22 115.496C1362.79 108.803 1380 106.878 1396.67 109.965C1413.34 113.052 1428.71 121.012 1440.86 132.839C1453 144.665 1461.36 159.827 1464.89 176.407C1469.59 198.637 1465.28 221.824 1452.91 240.882C1440.54 259.94 1421.11 273.311 1398.89 278.063ZM1366.38 125.219C1352.73 128.122 1340.25 135.008 1330.52 145.005C1320.78 155.002 1314.23 167.662 1311.68 181.384C1309.14 195.105 1310.73 209.272 1316.24 222.094C1321.75 234.915 1330.93 245.814 1342.64 253.413C1354.34 261.012 1368.04 264.97 1381.99 264.786C1395.95 264.602 1409.53 260.284 1421.03 252.379C1432.53 244.473 1441.43 233.335 1446.6 220.373C1451.77 207.411 1452.98 193.207 1450.08 179.557C1446.16 161.264 1435.16 145.27 1419.47 135.083C1403.78 124.896 1384.69 121.349 1366.38 125.219" fill="#995BD6"/>
<path d="M1394.25 208.964C1393.89 206.668 1392.64 204.607 1390.77 203.22C1389.01 201.99 1386.26 201.094 1382.53 200.53C1379.24 200.054 1375.98 199.394 1372.77 198.554C1370.18 197.883 1367.69 196.857 1365.39 195.504C1363.25 194.235 1361.4 192.54 1359.96 190.525C1358.36 188.208 1357.26 185.58 1356.75 182.813C1356.15 180.403 1356.04 177.895 1356.44 175.444C1356.84 172.992 1357.74 170.648 1359.08 168.556C1361.77 164.408 1365.9 161.446 1371.45 159.67L1369.28 149.499L1376.89 147.882L1379.08 158.194C1384.86 157.798 1389.74 159.202 1393.74 162.407C1397.73 165.611 1400.38 170.304 1401.7 176.486L1387.97 179.407C1387.16 175.603 1385.77 172.925 1383.81 171.374C1382.85 170.612 1381.73 170.081 1380.53 169.823C1379.33 169.564 1378.09 169.586 1376.91 169.885C1375.79 170.052 1374.71 170.448 1373.76 171.049C1372.8 171.65 1371.98 172.443 1371.34 173.378C1370.77 174.362 1370.4 175.448 1370.26 176.575C1370.11 177.702 1370.19 178.846 1370.49 179.942C1370.67 181.009 1371.05 182.031 1371.62 182.949C1372.19 183.868 1372.93 184.665 1373.81 185.294C1375.52 186.453 1378.43 187.391 1382.54 188.109C1386 188.677 1389.42 189.451 1392.79 190.426C1395.32 191.161 1397.72 192.256 1399.94 193.675C1401.95 194.981 1403.68 196.673 1405.03 198.651C1406.47 200.87 1407.47 203.348 1407.97 205.948C1409.11 211.337 1408.36 216.066 1405.72 220.136C1403.07 224.206 1398.87 227.17 1393.1 229.028L1395.12 238.483L1387.56 240.09L1385.56 230.682C1378.92 231.366 1373.4 230.131 1369 226.976C1364.6 223.822 1361.71 218.996 1360.33 212.499L1374.06 209.578C1374.87 213.35 1376.38 216.052 1378.6 217.683C1380.82 219.313 1383.61 219.771 1386.97 219.055C1389.4 218.677 1391.59 217.385 1393.1 215.442C1393.75 214.51 1394.19 213.447 1394.39 212.328C1394.59 211.209 1394.54 210.06 1394.26 208.961" fill="#F2F4F9"/>
</g>
</svg>
