<svg xmlns="http://www.w3.org/2000/svg" width="238.816" height="259.199" viewBox="0 0 238.816 259.199">
  <g id="SEC2_-_Quienes_pueden_-_Img_1" data-name="SEC2 - Quienes pueden - Img 1" transform="translate(323.387 -2066.229) rotate(21)">
    <path id="Trazado_147" data-name="Trazado 147" d="M74.24,462.271a11.023,11.023,0,0,0,15.579-.623L152.627,393.6a11.018,11.018,0,0,0-.62-15.575L71.013,322.767l-9.4,10.18c-.274-.278-.552-.547-.841-.811a29.168,29.168,0,1,0-39.562,42.871c.281.26.574.514.869.766L11.689,387.035ZM26.486,371.007c-.3-.25-.593-.5-.879-.768A22.686,22.686,0,1,1,56.38,336.9c.284.262.56.536.834.816Z" transform="translate(490.533 1709.981)" fill="#ffcd02"/>
    <path id="Trazado_148" data-name="Trazado 148" d="M137.923,393.773a7.7,7.7,0,0,0,9.516,5.3l62.23-17.712a7.711,7.711,0,0,0,5.3-9.52L186.784,309.4l-9.312,2.646c-.063-.261-.131-.528-.205-.788a20.379,20.379,0,1,0-39.2,11.162c.074.26.156.519.24.78l-10.3,2.929Zm4.745-71.813c-.086-.259-.172-.517-.248-.777a15.851,15.851,0,1,1,30.491-8.679c.075.259.141.523.2.789Z" transform="translate(436.134 1722.284)" fill="#995bd6"/>
    <path id="Trazado_149" data-name="Trazado 149" d="M63.529,475.82a23.174,23.174,0,0,1-4.713-.485,22.854,22.854,0,0,1-14.569-9.9L.58,398.943a3.535,3.535,0,0,1,1.014-4.9L137.6,304.725a3.535,3.535,0,0,1,5.285,1.809l33.152,96.7a3.535,3.535,0,0,1-1.4,4.1l-98.515,64.7a22.868,22.868,0,0,1-12.592,3.786m-55.1-77.8,41.726,63.535a15.945,15.945,0,0,0,22.084,4.573l96.222-63.192-30.786-89.8Z" transform="translate(496 1718.69)" fill="#3a3766"/>
    <path id="Trazado_150" data-name="Trazado 150" d="M289.093,376.619a3.537,3.537,0,0,1-3.35-2.408L249.073,265.25a3.533,3.533,0,0,1,.887-3.662l24.054-23.368a3.535,3.535,0,1,1,4.927,5.071l-22.456,21.815,35.959,106.849a3.536,3.536,0,0,1-3.351,4.664" transform="translate(379.602 1749.988)" fill="#3a3766"/>
    <path id="Trazado_151" data-name="Trazado 151" d="M131.1,582.811a3.535,3.535,0,0,1-1.944-6.49l122.265-80.3a8.8,8.8,0,0,0-9.665-14.717l-103.539,68a3.535,3.535,0,0,1-3.881-5.91l103.539-68a15.874,15.874,0,0,1,17.428,26.537l-122.265,80.3a3.521,3.521,0,0,1-1.937.58" transform="translate(436.341 1639.816)" fill="#3a3766"/>
    <path id="Trazado_152" data-name="Trazado 152" d="M295.923,561.831a16.072,16.072,0,1,0,4.613-22.256,16.077,16.077,0,0,0-4.613,22.256" transform="translate(358.84 1609.821)" fill="#fff"/>
    <path id="Trazado_153" data-name="Trazado 153" d="M291.762,561.034a18.5,18.5,0,1,1,25.625,5.314,18.525,18.525,0,0,1-25.625-5.314m4.063-2.669a13.642,13.642,0,1,0,3.917-18.888,13.652,13.652,0,0,0-3.917,18.888" transform="translate(360.969 1611.952)" fill="#3a3766"/>
    <path id="Trazado_154" data-name="Trazado 154" d="M311.756,564.875a6.837,6.837,0,1,0,1.962-9.466,6.834,6.834,0,0,0-1.962,9.466" transform="translate(350.726 1601.707)" fill="#dfc8f6"/>
    <path id="Trazado_155" data-name="Trazado 155" d="M307.591,564.077a9.269,9.269,0,1,1,12.838,2.663,9.278,9.278,0,0,1-12.838-2.663m4.065-2.67a4.4,4.4,0,1,0,1.263-6.1,4.412,4.412,0,0,0-1.263,6.1" transform="translate(352.858 1603.839)" fill="#3a3766"/>
    <path id="Trazado_156" data-name="Trazado 156" d="M178.92,638.67a16.071,16.071,0,1,0,4.612-22.254,16.075,16.075,0,0,0-4.612,22.254" transform="translate(413.558 1573.885)" fill="#fff"/>
    <path id="Trazado_157" data-name="Trazado 157" d="M174.761,637.877a18.5,18.5,0,1,1,25.623,5.313,18.527,18.527,0,0,1-25.623-5.313m4.063-2.67a13.64,13.64,0,1,0,3.915-18.887,13.653,13.653,0,0,0-3.915,18.887" transform="translate(415.687 1576.014)" fill="#3a3766"/>
    <path id="Trazado_158" data-name="Trazado 158" d="M244.675,440.627a3.532,3.532,0,0,1-2.959-1.595l-53.572-81.576a3.535,3.535,0,1,1,5.91-3.88l53.573,81.576a3.534,3.534,0,0,1-2.952,5.475" transform="translate(408.282 1696.319)" fill="#3a3766"/>
    <path id="Trazado_159" data-name="Trazado 159" d="M182.476,481.475a3.532,3.532,0,0,1-2.959-1.595l-53.573-81.574a3.535,3.535,0,1,1,5.91-3.88L185.428,476a3.535,3.535,0,0,1-2.952,5.475" transform="translate(437.371 1677.214)" fill="#3a3766"/>
    <path id="Trazado_160" data-name="Trazado 160" d="M120.279,522.321a3.531,3.531,0,0,1-2.959-1.595L63.748,439.15a3.535,3.535,0,1,1,5.91-3.881l53.573,81.577a3.535,3.535,0,0,1-2.952,5.475" transform="translate(466.458 1658.113)" fill="#3a3766"/>
    <path id="Trazado_161" data-name="Trazado 161" d="M33.151,448.972a3.535,3.535,0,0,1-1.944-6.49l130.211-85.517a3.535,3.535,0,0,1,3.881,5.91L35.088,448.393a3.521,3.521,0,0,1-1.937.58" transform="translate(482.151 1694.259)" fill="#3a3766"/>
    <path id="Trazado_162" data-name="Trazado 162" d="M68.142,506.547a3.535,3.535,0,0,1-1.944-6.49l122.776-80.631a3.535,3.535,0,0,1,3.882,5.91L70.079,505.966a3.517,3.517,0,0,1-1.937.58" transform="translate(465.787 1665.048)" fill="#3a3766"/>
    <path id="Trazado_163" data-name="Trazado 163" d="M194.751,641.717a6.837,6.837,0,1,0,1.964-9.468,6.837,6.837,0,0,0-1.964,9.468" transform="translate(405.446 1565.771)" fill="#dfc8f6"/>
    <path id="Trazado_164" data-name="Trazado 164" d="M190.585,640.923a9.27,9.27,0,1,1,12.838,2.662,9.278,9.278,0,0,1-12.838-2.662m4.065-2.67a4.406,4.406,0,1,0,1.265-6.1,4.411,4.411,0,0,0-1.265,6.1" transform="translate(407.578 1567.9)" fill="#3a3766"/>
    <path id="Trazado_165" data-name="Trazado 165" d="M277.559,251.913a5.048,5.048,0,0,0,.739-.6l14.61-14.341a4.862,4.862,0,0,0-6.812-6.94l-14.609,14.344a4.862,4.862,0,0,0,6.072,7.535" transform="translate(369.715 1754)" fill="#3a3766"/>
  </g>
</svg>
