<svg xmlns="http://www.w3.org/2000/svg" width="242.285" height="192.664" viewBox="0 0 242.285 192.664">
  <g id="SEC3_-_Inscríbete_Gratis_-_Img_1" data-name="SEC3 - Inscríbete Gratis - Img 1" transform="translate(-291 -1745.068)">
    <path id="Trazado_347" data-name="Trazado 347" d="M20.5,266.735,6.5,371.163A10.766,10.766,0,0,0,17.27,381.929H107.7a10.766,10.766,0,0,0,10.767-10.766l-12.56-104.428Z" transform="translate(286.34 1553.959)" fill="#995bd6"/>
    <path id="Trazado_348" data-name="Trazado 348" d="M103.043,379.113H12.61A12.624,12.624,0,0,1,0,366.5a1.861,1.861,0,0,1,.016-.245l14-104.428a1.844,1.844,0,0,1,1.828-1.6h85.41a1.844,1.844,0,0,1,1.831,1.624l12.56,104.428a1.842,1.842,0,0,1,.013.22,12.625,12.625,0,0,1-12.611,12.61M3.689,366.62a8.932,8.932,0,0,0,8.921,8.8h90.433a8.932,8.932,0,0,0,8.922-8.816L99.614,263.919H17.453Z" transform="translate(291 1558.619)" fill="#3a3766"/>
    <path id="Trazado_349" data-name="Trazado 349" d="M120.705,333.943a5.059,5.059,0,1,1-5.06-5.059,5.06,5.06,0,0,1,5.06,5.059" transform="translate(211.766 1509.431)" fill="#995bd6"/>
    <path id="Trazado_350" data-name="Trazado 350" d="M110.986,336.187a6.9,6.9,0,1,1,6.9-6.9,6.91,6.91,0,0,1-6.9,6.9m0-10.117a3.215,3.215,0,1,0,3.215,3.215,3.218,3.218,0,0,0-3.215-3.215" transform="translate(216.426 1514.09)" fill="#3a3766"/>
    <path id="Trazado_351" data-name="Trazado 351" d="M271.548,333.943a5.059,5.059,0,1,1-5.059-5.059,5.06,5.06,0,0,1,5.059,5.059" transform="translate(103.691 1509.431)" fill="#995bd6"/>
    <path id="Trazado_352" data-name="Trazado 352" d="M261.829,336.187a6.9,6.9,0,1,1,6.9-6.9,6.91,6.91,0,0,1-6.9,6.9m0-10.117a3.215,3.215,0,1,0,3.215,3.215,3.218,3.218,0,0,0-3.215-3.215" transform="translate(108.351 1514.09)" fill="#3a3766"/>
    <path id="Trazado_353" data-name="Trazado 353" d="M113.133,189.993a1.844,1.844,0,0,1-1.718-1.173,58.948,58.948,0,0,1-3.826-21.262c0-22.883,12.257-41.5,27.323-41.5s27.323,18.616,27.323,41.5a59.047,59.047,0,0,1-3.75,21.066,1.844,1.844,0,1,1-3.44-1.329,55.332,55.332,0,0,0,3.5-19.737c0-20.849-10.6-37.811-23.635-37.811s-23.635,16.962-23.635,37.811a55.231,55.231,0,0,0,3.573,19.919,1.846,1.846,0,0,1-1.717,2.516" transform="translate(213.915 1654.75)" fill="#3a3766"/>
    <path id="Trazado_354" data-name="Trazado 354" d="M330.3,226.075l16.691-16.93L330.3,192.215H477.08l-16.691,16.93,16.691,16.93Z" transform="translate(54.348 1607.351)" fill="#995bd6"/>
    <path id="Trazado_355" data-name="Trazado 355" d="M472.432,223.259H325.639a1.844,1.844,0,0,1-1.313-3.139l15.415-15.635L324.326,188.85a1.844,1.844,0,0,1,1.313-3.139H472.42a1.844,1.844,0,0,1,1.313,3.139l-15.415,15.635L473.613,220a1.844,1.844,0,0,1-1.181,3.261m-142.385-3.688H468.012l-13.6-13.792a1.844,1.844,0,0,1,0-2.589l13.6-13.791H330.047l13.6,13.791a1.843,1.843,0,0,1,0,2.589Z" transform="translate(59.009 1612.011)" fill="#3a3766"/>
    <path id="Trazado_356" data-name="Trazado 356" d="M632.734,198.5a21.855,21.855,0,1,1-21.855-21.855A21.855,21.855,0,0,1,632.734,198.5" transform="translate(-131.021 1618.504)" fill="#ffcd02"/>
    <path id="Trazado_357" data-name="Trazado 357" d="M606.219,217.541a23.7,23.7,0,1,1,23.7-23.7,23.727,23.727,0,0,1-23.7,23.7m0-43.71a20.011,20.011,0,1,0,20.011,20.011,20.033,20.033,0,0,0-20.011-20.011" transform="translate(-126.362 1623.165)" fill="#3a3766"/>
    <path id="Trazado_358" data-name="Trazado 358" d="M651.842,225.866a2.488,2.488,0,0,0-.62-1.774,5.6,5.6,0,0,0-2.1-1.217,24.63,24.63,0,0,1-2.554-1.107,8.153,8.153,0,0,1-1.843-1.264,5.1,5.1,0,0,1-1.2-1.678,5.639,5.639,0,0,1-.428-2.3,5.1,5.1,0,0,1,1.468-3.765,6.193,6.193,0,0,1,3.9-1.712v-2.909h2.175v2.948a5.679,5.679,0,0,1,3.764,2.005,6.6,6.6,0,0,1,1.359,4.315h-3.927a3.754,3.754,0,0,0-.673-2.439,2.223,2.223,0,0,0-1.8-.808,2.29,2.29,0,0,0-1.726.632,2.4,2.4,0,0,0-.611,1.745,2.3,2.3,0,0,0,.6,1.659,6.612,6.612,0,0,0,2.222,1.276,24.862,24.862,0,0,1,2.671,1.231,7.713,7.713,0,0,1,1.766,1.3,5.063,5.063,0,0,1,1.1,1.658,5.728,5.728,0,0,1,.38,2.167,5.071,5.071,0,0,1-1.44,3.751,6.316,6.316,0,0,1-3.969,1.7v2.7H648.2V231.3a6.541,6.541,0,0,1-4.315-1.977,6.37,6.37,0,0,1-1.529-4.465h3.926a3.618,3.618,0,0,0,.769,2.48,2.8,2.8,0,0,0,2.209.863,2.7,2.7,0,0,0,1.89-.632,2.2,2.2,0,0,0,.693-1.705" transform="translate(-169.233 1595.939)" fill="#f2f4f9"/>
    <path id="Trazado_359" data-name="Trazado 359" d="M445.13,127.449a18.1,18.1,0,1,1-18.1-18.1,18.1,18.1,0,0,1,18.1,18.1" transform="translate(-1.986 1666.723)" fill="#ffcd02"/>
    <path id="Trazado_360" data-name="Trazado 360" d="M422.369,142.736a19.946,19.946,0,1,1,19.945-19.946,19.968,19.968,0,0,1-19.945,19.946m0-36.2a16.258,16.258,0,1,0,16.257,16.257,16.276,16.276,0,0,0-16.257-16.257" transform="translate(2.674 1671.383)" fill="#3a3766"/>
    <path id="Trazado_361" data-name="Trazado 361" d="M460.956,150.114a2.061,2.061,0,0,0-.513-1.469,4.641,4.641,0,0,0-1.738-1.008,20.343,20.343,0,0,1-2.116-.918,6.717,6.717,0,0,1-1.526-1.047,4.216,4.216,0,0,1-.991-1.39,4.664,4.664,0,0,1-.355-1.9,4.224,4.224,0,0,1,1.216-3.118,5.132,5.132,0,0,1,3.231-1.418v-2.41h1.8v2.443a4.7,4.7,0,0,1,3.118,1.661,5.467,5.467,0,0,1,1.126,3.574h-3.253a3.107,3.107,0,0,0-.557-2.021,1.842,1.842,0,0,0-1.492-.67,1.9,1.9,0,0,0-1.43.523,1.99,1.99,0,0,0-.506,1.446,1.9,1.9,0,0,0,.5,1.374,5.493,5.493,0,0,0,1.84,1.058,20.483,20.483,0,0,1,2.212,1.019,6.388,6.388,0,0,1,1.463,1.081,4.2,4.2,0,0,1,.913,1.373,4.75,4.75,0,0,1,.314,1.8,4.2,4.2,0,0,1-1.193,3.107,5.231,5.231,0,0,1-3.287,1.407v2.24h-1.79v-2.228a5.417,5.417,0,0,1-3.574-1.638,5.274,5.274,0,0,1-1.266-3.7h3.251a3,3,0,0,0,.637,2.054,2.322,2.322,0,0,0,1.83.715,2.237,2.237,0,0,0,1.565-.523,1.822,1.822,0,0,0,.574-1.412" transform="translate(-33.634 1648.033)" fill="#f2f4f9"/>
    <path id="Trazado_362" data-name="Trazado 362" d="M617.445,19.681A13.177,13.177,0,1,1,604.268,6.5a13.177,13.177,0,0,1,13.177,13.177" transform="translate(-132.502 1740.408)" fill="#ffcd02"/>
    <path id="Trazado_363" data-name="Trazado 363" d="M599.608,30.043a15.021,15.021,0,1,1,15.021-15.022,15.038,15.038,0,0,1-15.021,15.022m0-26.354A11.333,11.333,0,1,0,610.94,15.021,11.345,11.345,0,0,0,599.608,3.688" transform="translate(-127.842 1745.068)" fill="#3a3766"/>
    <path id="Trazado_364" data-name="Trazado 364" d="M628.964,36.18a1.5,1.5,0,0,0-.373-1.07,3.372,3.372,0,0,0-1.265-.733,14.974,14.974,0,0,1-1.541-.668,4.9,4.9,0,0,1-1.111-.762,3.061,3.061,0,0,1-.721-1.011,3.4,3.4,0,0,1-.258-1.385,3.076,3.076,0,0,1,.885-2.27,3.736,3.736,0,0,1,2.352-1.032V25.494h1.311v1.778a3.423,3.423,0,0,1,2.27,1.209,3.979,3.979,0,0,1,.819,2.6h-2.368a2.265,2.265,0,0,0-.406-1.471,1.342,1.342,0,0,0-1.086-.487,1.382,1.382,0,0,0-1.04.381,1.449,1.449,0,0,0-.368,1.052,1.388,1.388,0,0,0,.36,1,4,4,0,0,0,1.34.77,14.861,14.861,0,0,1,1.61.742,4.643,4.643,0,0,1,1.065.787,3.06,3.06,0,0,1,.665,1,3.469,3.469,0,0,1,.229,1.308,3.057,3.057,0,0,1-.868,2.261,3.806,3.806,0,0,1-2.393,1.024v1.631h-1.3V39.458a3.945,3.945,0,0,1-2.6-1.193,3.838,3.838,0,0,1-.922-2.691h2.367a2.183,2.183,0,0,0,.463,1.5,1.692,1.692,0,0,0,1.332.521,1.628,1.628,0,0,0,1.139-.381,1.328,1.328,0,0,0,.417-1.028" transform="translate(-155.54 1726.802)" fill="#f2f4f9"/>
    <path id="Trazado_365" data-name="Trazado 365" d="M330.049,311.641v87.323A15.139,15.139,0,0,0,345.188,414.1H461.761a15.14,15.14,0,0,0,15.14-15.139V311.641Z" transform="translate(54.528 1521.785)" fill="#ffcd02"/>
    <path id="Trazado_366" data-name="Trazado 366" d="M457.1,411.287H340.528A17,17,0,0,1,323.545,394.3V306.981a1.844,1.844,0,0,1,1.844-1.844H472.24a1.844,1.844,0,0,1,1.844,1.844V394.3A17,17,0,0,1,457.1,411.287M327.233,308.825V394.3a13.31,13.31,0,0,0,13.3,13.3H457.1a13.31,13.31,0,0,0,13.3-13.3V308.825Z" transform="translate(59.188 1526.445)" fill="#3a3766"/>
    <path id="Trazado_367" data-name="Trazado 367" d="M695.766,445.1a6.229,6.229,0,1,1-6.228-6.228,6.228,6.228,0,0,1,6.228,6.228" transform="translate(-198.574 1430.63)" fill="#ffcd02"/>
    <path id="Trazado_368" data-name="Trazado 368" d="M684.878,448.509a8.072,8.072,0,1,1,8.073-8.073,8.082,8.082,0,0,1-8.073,8.073m0-12.457a4.384,4.384,0,1,0,4.384,4.384,4.39,4.39,0,0,0-4.384-4.384" transform="translate(-193.914 1435.29)" fill="#3a3766"/>
    <path id="Trazado_369" data-name="Trazado 369" d="M463.259,445.1a6.229,6.229,0,1,1-6.229-6.228,6.228,6.228,0,0,1,6.229,6.228" transform="translate(-31.988 1430.63)" fill="#ffcd02"/>
    <path id="Trazado_370" data-name="Trazado 370" d="M452.371,448.509a8.072,8.072,0,1,1,8.073-8.073,8.082,8.082,0,0,1-8.073,8.073m0-12.457a4.384,4.384,0,1,0,4.384,4.384,4.39,4.39,0,0,0-4.384-4.384" transform="translate(-27.329 1435.29)" fill="#3a3766"/>
    <path id="Trazado_371" data-name="Trazado 371" d="M501.071,495.049c-19.191,0-34.8-17.439-34.8-38.873a1.844,1.844,0,1,1,3.688,0c0,19.4,13.959,35.185,31.116,35.185s31.117-15.784,31.117-35.185a1.844,1.844,0,1,1,3.688,0c0,21.434-15.613,38.873-34.8,38.873" transform="translate(-43.069 1419.55)" fill="#3a3766"/>
    <path id="Trazado_372" data-name="Trazado 372" d="M330.12,192.215h-.071v33.86h.071l16.691-16.93Z" transform="translate(54.528 1607.351)" fill="#ffcd02"/>
    <path id="Trazado_373" data-name="Trazado 373" d="M325.46,223.259h-.071a1.844,1.844,0,0,1-1.844-1.844v-33.86a1.844,1.844,0,0,1,1.844-1.844h.071a1.844,1.844,0,0,1,1.313.549l16.691,16.93a1.843,1.843,0,0,1,0,2.589l-16.691,16.93a1.844,1.844,0,0,1-1.313.549m1.773-31.279v25.011l12.329-12.505Z" transform="translate(59.188 1612.011)" fill="#3a3766"/>
    <path id="Trazado_374" data-name="Trazado 374" d="M805.569,192.215h.072v33.86h-.072l-16.69-16.93Z" transform="translate(-274.213 1607.351)" fill="#ffcd02"/>
    <path id="Trazado_375" data-name="Trazado 375" d="M800.982,223.259h-.072a1.845,1.845,0,0,1-1.313-.549l-16.69-16.93a1.844,1.844,0,0,1,0-2.589l16.69-16.93a1.845,1.845,0,0,1,1.313-.549h.072a1.844,1.844,0,0,1,1.844,1.844v33.86a1.844,1.844,0,0,1-1.844,1.844m-14.172-18.774,12.328,12.505V191.98Z" transform="translate(-269.553 1612.011)" fill="#3a3766"/>
    <path id="Trazado_376" data-name="Trazado 376" d="M346.991,268.858v-16.93L330.3,268.858Z" transform="translate(54.348 1564.568)" fill="#cca8f1"/>
    <path id="Trazado_377" data-name="Trazado 377" d="M342.331,266.042H325.639a1.844,1.844,0,0,1-1.313-3.139l16.691-16.93a1.844,1.844,0,0,1,3.157,1.295V264.2a1.844,1.844,0,0,1-1.844,1.844m-12.284-3.688h10.44V251.765Z" transform="translate(59.009 1569.228)" fill="#3a3766"/>
    <path id="Trazado_378" data-name="Trazado 378" d="M789,268.858v-16.93l16.691,16.93Z" transform="translate(-274.301 1564.568)" fill="#cca8f1"/>
    <path id="Trazado_379" data-name="Trazado 379" d="M801.047,266.042h-16.7A1.844,1.844,0,0,1,782.5,264.2v-16.93a1.844,1.844,0,0,1,3.157-1.295l16.571,16.808a1.844,1.844,0,0,1-1.18,3.261m-14.859-3.688h10.439l-10.439-10.589Z" transform="translate(-269.642 1569.228)" fill="#3a3766"/>
  </g>
</svg>
